M48
;DRILL file {KiCad 4.0.1-stable} date 2/24/2016 8:00:01 PM
;FORMAT={-:-/ absolute / metric / decimal}
FMAT,2
METRIC,TZ
T1C0.600
T2C0.800
T3C0.800
T4C0.900
T5C1.016
%
G90
G05
M71
T1
X-0.41Y18.26
X1.495Y36.04
X2.13Y18.26
X2.145Y15.495
X29.682Y45.535
X30.032Y18.273
X30.726Y37.894
X32.81Y18.428
X33.064Y38.012
X34.204Y1.778
X35.711Y46.585
X37.176Y35.387
X37.351Y15.68
X58.615Y17.621
X63.512Y37.789
X64.36Y20.8
X64.788Y15.752
X68.264Y16.941
X69.412Y34.994
X73.208Y36.587
X78.237Y3.219
T2
X-5.915Y40.855
X-5.915Y33.235
X-5.49Y20.8
X-5.49Y13.18
X-3.375Y40.855
X-3.375Y33.235
X-2.95Y20.8
X-2.95Y13.18
X-0.835Y40.855
X-0.835Y33.235
X-0.41Y20.8
X-0.41Y13.18
X1.705Y40.855
X1.705Y33.235
X2.13Y20.8
X2.13Y13.18
X4.245Y40.855
X4.245Y33.235
X4.67Y20.8
X4.67Y13.18
X6.785Y40.855
X6.785Y33.235
X7.21Y20.8
X7.21Y13.18
X9.325Y40.855
X9.325Y33.235
X9.75Y20.8
X9.75Y13.18
X11.865Y40.855
X11.865Y33.235
X12.29Y20.8
X12.29Y13.18
X25.055Y20.83
X25.055Y13.21
X25.625Y40.485
X25.625Y32.865
X27.595Y20.83
X27.595Y13.21
X28.165Y40.485
X28.165Y32.865
X30.135Y20.83
X30.135Y13.21
X30.705Y40.485
X30.705Y32.865
X32.675Y20.83
X32.675Y13.21
X33.245Y40.485
X33.245Y32.865
X35.215Y20.83
X35.215Y13.21
X35.785Y40.485
X35.785Y32.865
X37.755Y20.83
X37.755Y13.21
X38.325Y40.485
X38.325Y32.865
X40.295Y20.83
X40.295Y13.21
X40.865Y40.485
X40.865Y32.865
X42.835Y20.83
X42.835Y13.21
X43.405Y40.485
X43.405Y32.865
X56.74Y40.485
X56.74Y32.865
X56.74Y20.8
X56.74Y13.18
X59.28Y40.485
X59.28Y32.865
X59.28Y20.8
X59.28Y13.18
X61.82Y40.485
X61.82Y32.865
X61.82Y20.8
X61.82Y13.18
X64.36Y40.485
X64.36Y32.865
X64.36Y20.8
X64.36Y13.18
X66.9Y40.485
X66.9Y32.865
X66.9Y20.8
X66.9Y13.18
X69.44Y40.485
X69.44Y32.865
X69.44Y20.8
X69.44Y13.18
X71.98Y40.485
X71.98Y32.865
X71.98Y20.8
X71.98Y13.18
X74.52Y40.485
X74.52Y32.865
X74.52Y20.8
X74.52Y13.18
T3
X-13.11Y50.01
X-13.11Y-2.06
X83.41Y51.28
X83.41Y-3.33
T4
X-11.205Y39.77
X-11.205Y34.77
X-10.57Y20.085
X-10.57Y15.085
X20.545Y39.135
X20.545Y34.135
X22.45Y19.45
X22.45Y14.45
X51.66Y19.45
X51.66Y14.45
X52.295Y39.135
X52.295Y34.135
T5
X-7.82Y28.79
X-7.82Y26.25
X-7.395Y8.735
X-7.395Y6.195
X-5.28Y28.79
X-5.28Y26.25
X-4.855Y8.735
X-4.855Y6.195
X-2.74Y28.79
X-2.74Y26.25
X-2.315Y8.735
X-2.315Y6.195
X-0.2Y28.79
X-0.2Y26.25
X0.225Y8.735
X0.225Y6.195
X4.866Y48.286
X5.515Y28.79
X5.515Y26.25
X5.94Y8.735
X5.94Y6.195
X7.406Y48.286
X8.055Y28.79
X8.055Y26.25
X8.48Y8.735
X8.48Y6.195
X9.946Y48.286
X10.595Y28.79
X10.595Y26.25
X11.02Y8.735
X11.02Y6.195
X12.486Y48.286
X13.135Y28.79
X13.135Y26.25
X13.56Y8.735
X13.56Y6.195
X14.01Y0.026
X15.026Y48.286
X16.55Y0.026
X17.566Y48.286
X18.64Y25.245
X18.64Y22.705
X19.09Y0.026
X20.106Y48.286
X21.63Y0.026
X22.646Y48.286
X23.085Y8.735
X23.085Y6.195
X24.17Y0.026
X24.355Y28.42
X24.355Y25.88
X25.186Y48.286
X25.625Y8.735
X25.625Y6.195
X26.71Y0.026
X26.895Y28.42
X26.895Y25.88
X27.726Y48.286
X28.165Y8.735
X28.165Y6.195
X29.25Y0.026
X29.435Y28.42
X29.435Y25.88
X30.705Y8.735
X30.705Y6.195
X31.79Y48.286
X31.79Y0.026
X31.975Y28.42
X31.975Y25.88
X34.33Y48.286
X36.42Y8.735
X36.42Y6.195
X36.87Y48.286
X36.87Y0.026
X37.055Y28.42
X37.055Y25.88
X38.96Y8.735
X38.96Y6.195
X39.41Y48.286
X39.41Y0.026
X39.595Y28.42
X39.595Y25.88
X41.5Y8.735
X41.5Y6.195
X41.95Y48.286
X41.95Y0.026
X42.135Y28.42
X42.135Y25.88
X44.04Y8.735
X44.04Y6.195
X44.49Y48.286
X44.49Y0.026
X44.675Y28.42
X44.675Y25.88
X47.03Y48.286
X47.03Y0.026
X49.57Y48.286
X49.57Y0.026
X49.755Y8.735
X49.755Y6.195
X50.39Y27.15
X50.39Y24.61
X52.11Y0.026
X54.65Y48.286
X54.65Y0.026
X54.835Y28.42
X54.835Y25.88
X54.835Y8.735
X54.835Y6.195
X57.19Y48.286
X57.375Y28.42
X57.375Y25.88
X57.375Y8.735
X57.375Y6.195
X59.73Y48.286
X59.73Y0.026
X59.915Y28.42
X59.915Y25.88
X59.915Y8.735
X59.915Y6.195
X62.27Y48.286
X62.27Y0.026
X62.455Y28.42
X62.455Y25.88
X62.455Y8.735
X62.455Y6.195
X64.81Y48.286
X64.81Y0.026
X67.35Y48.286
X67.35Y0.026
X67.535Y28.42
X67.535Y25.88
X67.535Y8.735
X67.535Y6.195
X69.89Y48.286
X69.89Y0.026
X70.075Y28.42
X70.075Y25.88
X70.075Y8.735
X70.075Y6.195
X72.43Y48.286
X72.43Y0.026
X72.615Y28.42
X72.615Y25.88
X72.615Y8.735
X72.615Y6.195
X74.97Y0.026
X75.155Y28.42
X75.155Y25.88
X75.155Y8.735
X75.155Y6.195
X77.51Y0.026
X80.05Y48.286
X80.05Y45.746
X80.05Y43.206
X80.05Y40.666
X80.05Y38.126
X80.05Y35.586
X80.05Y33.046
X80.05Y30.506
X80.05Y27.966
X80.05Y25.426
X80.05Y22.886
X80.05Y20.346
X80.05Y17.806
X80.05Y15.266
X80.05Y12.726
X80.05Y10.186
X80.05Y7.646
X80.05Y5.106
X82.59Y48.286
X82.59Y45.746
X82.59Y43.206
X82.59Y40.666
X82.59Y38.126
X82.59Y35.586
X82.59Y33.046
X82.59Y30.506
X82.59Y27.966
X82.59Y25.426
X82.59Y22.886
X82.59Y20.346
X82.59Y17.806
X82.59Y15.266
X82.59Y12.726
X82.59Y10.186
X82.59Y7.646
X82.59Y5.106
T0
M30
