G04 #@! TF.FileFunction,Copper,L1,Top,Signal*
%FSLAX46Y46*%
G04 Gerber Fmt 4.6, Leading zero omitted, Abs format (unit mm)*
G04 Created by KiCad (PCBNEW 4.0.1-stable) date 2/24/2016 7:59:54 PM*
%MOMM*%
G01*
G04 APERTURE LIST*
%ADD10C,0.100000*%
%ADD11O,1.524000X2.540000*%
%ADD12C,1.524000*%
%ADD13O,1.600000X2.300000*%
%ADD14R,1.727200X1.727200*%
%ADD15O,1.727200X1.727200*%
%ADD16R,2.032000X2.032000*%
%ADD17O,2.032000X2.032000*%
%ADD18C,1.998980*%
%ADD19R,1.400000X1.400000*%
%ADD20C,1.400000*%
%ADD21C,1.300000*%
%ADD22C,1.200000*%
%ADD23C,0.700000*%
G04 APERTURE END LIST*
D10*
D11*
X54650000Y48286000D03*
X57190000Y48286000D03*
X59730000Y48286000D03*
X62270000Y48286000D03*
X64810000Y48286000D03*
X67350000Y48286000D03*
X69890000Y48286000D03*
X72430000Y48286000D03*
X77510000Y26000D03*
X74970000Y26000D03*
X72430000Y26000D03*
X69890000Y26000D03*
X59730000Y26000D03*
X54650000Y26000D03*
X52110000Y26000D03*
X62270000Y26000D03*
X64810000Y26000D03*
X67350000Y26000D03*
X49570000Y26000D03*
X47030000Y26000D03*
X44490000Y26000D03*
X36870000Y26000D03*
X39410000Y26000D03*
X41950000Y26000D03*
X31790000Y26000D03*
X29250000Y26000D03*
X26710000Y26000D03*
X21630000Y26000D03*
X19090000Y26000D03*
X49570000Y48286000D03*
X47030000Y48286000D03*
X44490000Y48286000D03*
X41950000Y48286000D03*
X39410000Y48286000D03*
X36870000Y48286000D03*
X34330000Y48286000D03*
X31790000Y48286000D03*
X27726000Y48286000D03*
X25186000Y48286000D03*
X22646000Y48286000D03*
X20106000Y48286000D03*
X17566000Y48286000D03*
X15026000Y48286000D03*
X12486000Y48286000D03*
X9946000Y48286000D03*
X24170000Y26000D03*
D12*
X80050000Y45746000D03*
X82590000Y45746000D03*
X80050000Y43206000D03*
X82590000Y43206000D03*
X80050000Y40666000D03*
X82590000Y40666000D03*
X80050000Y38126000D03*
X82590000Y38126000D03*
X80050000Y48286000D03*
X82590000Y48286000D03*
X82590000Y35586000D03*
X80050000Y35586000D03*
X80050000Y33046000D03*
X82590000Y33046000D03*
X80050000Y30506000D03*
X82590000Y30506000D03*
X80050000Y27966000D03*
X82590000Y27966000D03*
X80050000Y25426000D03*
X82590000Y25426000D03*
X80050000Y22886000D03*
X82590000Y22886000D03*
X80050000Y20346000D03*
X82590000Y20346000D03*
X80050000Y17806000D03*
X82590000Y17806000D03*
X80050000Y15266000D03*
X82590000Y15266000D03*
X80050000Y12726000D03*
X82590000Y12726000D03*
X80050000Y10186000D03*
X82590000Y10186000D03*
X80050000Y7646000D03*
X82590000Y7646000D03*
X80050000Y5106000D03*
X82590000Y5106000D03*
D11*
X16550000Y26000D03*
X14010000Y26000D03*
X7406000Y48286000D03*
X4866000Y48286000D03*
D13*
X12290000Y20800000D03*
X9750000Y20800000D03*
X7210000Y20800000D03*
X4670000Y20800000D03*
X2130000Y20800000D03*
X-410000Y20800000D03*
X-2950000Y20800000D03*
X-5490000Y20800000D03*
X-5490000Y13180000D03*
X-2950000Y13180000D03*
X-410000Y13180000D03*
X2130000Y13180000D03*
X4670000Y13180000D03*
X7210000Y13180000D03*
X9750000Y13180000D03*
X12290000Y13180000D03*
X11865000Y40855000D03*
X9325000Y40855000D03*
X6785000Y40855000D03*
X4245000Y40855000D03*
X1705000Y40855000D03*
X-835000Y40855000D03*
X-3375000Y40855000D03*
X-5915000Y40855000D03*
X-5915000Y33235000D03*
X-3375000Y33235000D03*
X-835000Y33235000D03*
X1705000Y33235000D03*
X4245000Y33235000D03*
X6785000Y33235000D03*
X9325000Y33235000D03*
X11865000Y33235000D03*
X42835000Y20830000D03*
X40295000Y20830000D03*
X37755000Y20830000D03*
X35215000Y20830000D03*
X32675000Y20830000D03*
X30135000Y20830000D03*
X27595000Y20830000D03*
X25055000Y20830000D03*
X25055000Y13210000D03*
X27595000Y13210000D03*
X30135000Y13210000D03*
X32675000Y13210000D03*
X35215000Y13210000D03*
X37755000Y13210000D03*
X40295000Y13210000D03*
X42835000Y13210000D03*
X43405000Y40485000D03*
X40865000Y40485000D03*
X38325000Y40485000D03*
X35785000Y40485000D03*
X33245000Y40485000D03*
X30705000Y40485000D03*
X28165000Y40485000D03*
X25625000Y40485000D03*
X25625000Y32865000D03*
X28165000Y32865000D03*
X30705000Y32865000D03*
X33245000Y32865000D03*
X35785000Y32865000D03*
X38325000Y32865000D03*
X40865000Y32865000D03*
X43405000Y32865000D03*
D14*
X18640000Y25245000D03*
D15*
X18640000Y22705000D03*
D14*
X5940000Y8735000D03*
D15*
X5940000Y6195000D03*
X8480000Y8735000D03*
X8480000Y6195000D03*
X11020000Y8735000D03*
X11020000Y6195000D03*
X13560000Y8735000D03*
X13560000Y6195000D03*
D14*
X-7395000Y8735000D03*
D15*
X-7395000Y6195000D03*
X-4855000Y8735000D03*
X-4855000Y6195000D03*
X-2315000Y8735000D03*
X-2315000Y6195000D03*
X225000Y8735000D03*
X225000Y6195000D03*
D16*
X50390000Y27150000D03*
D17*
X50390000Y24610000D03*
D14*
X5515000Y28790000D03*
D15*
X5515000Y26250000D03*
X8055000Y28790000D03*
X8055000Y26250000D03*
X10595000Y28790000D03*
X10595000Y26250000D03*
X13135000Y28790000D03*
X13135000Y26250000D03*
D14*
X-7820000Y28790000D03*
D15*
X-7820000Y26250000D03*
X-5280000Y28790000D03*
X-5280000Y26250000D03*
X-2740000Y28790000D03*
X-2740000Y26250000D03*
X-200000Y28790000D03*
X-200000Y26250000D03*
D14*
X36420000Y8735000D03*
D15*
X36420000Y6195000D03*
X38960000Y8735000D03*
X38960000Y6195000D03*
X41500000Y8735000D03*
X41500000Y6195000D03*
X44040000Y8735000D03*
X44040000Y6195000D03*
D14*
X23085000Y8735000D03*
D15*
X23085000Y6195000D03*
X25625000Y8735000D03*
X25625000Y6195000D03*
X28165000Y8735000D03*
X28165000Y6195000D03*
X30705000Y8735000D03*
X30705000Y6195000D03*
D14*
X37055000Y28420000D03*
D15*
X37055000Y25880000D03*
X39595000Y28420000D03*
X39595000Y25880000D03*
X42135000Y28420000D03*
X42135000Y25880000D03*
X44675000Y28420000D03*
X44675000Y25880000D03*
D14*
X24355000Y28420000D03*
D15*
X24355000Y25880000D03*
X26895000Y28420000D03*
X26895000Y25880000D03*
X29435000Y28420000D03*
X29435000Y25880000D03*
X31975000Y28420000D03*
X31975000Y25880000D03*
D18*
X-13110000Y50010000D03*
X-13110000Y-2060000D03*
X83410000Y51280000D03*
X83410000Y-3330000D03*
D19*
X51660000Y14450000D03*
D20*
X51660000Y19450000D03*
D19*
X52295000Y34135000D03*
D20*
X52295000Y39135000D03*
D19*
X22450000Y14450000D03*
D20*
X22450000Y19450000D03*
D19*
X20545000Y34135000D03*
D20*
X20545000Y39135000D03*
D19*
X-10570000Y15085000D03*
D20*
X-10570000Y20085000D03*
D19*
X-11205000Y34770000D03*
D20*
X-11205000Y39770000D03*
D14*
X67535000Y28420000D03*
D15*
X67535000Y25880000D03*
X70075000Y28420000D03*
X70075000Y25880000D03*
X72615000Y28420000D03*
X72615000Y25880000D03*
X75155000Y28420000D03*
X75155000Y25880000D03*
D14*
X54835000Y28420000D03*
D15*
X54835000Y25880000D03*
X57375000Y28420000D03*
X57375000Y25880000D03*
X59915000Y28420000D03*
X59915000Y25880000D03*
X62455000Y28420000D03*
X62455000Y25880000D03*
D14*
X49755000Y8735000D03*
D15*
X49755000Y6195000D03*
D14*
X67535000Y8735000D03*
D15*
X67535000Y6195000D03*
X70075000Y8735000D03*
X70075000Y6195000D03*
X72615000Y8735000D03*
X72615000Y6195000D03*
X75155000Y8735000D03*
X75155000Y6195000D03*
D14*
X54835000Y8735000D03*
D15*
X54835000Y6195000D03*
X57375000Y8735000D03*
X57375000Y6195000D03*
X59915000Y8735000D03*
X59915000Y6195000D03*
X62455000Y8735000D03*
X62455000Y6195000D03*
D13*
X74520000Y40485000D03*
X71980000Y40485000D03*
X69440000Y40485000D03*
X66900000Y40485000D03*
X64360000Y40485000D03*
X61820000Y40485000D03*
X59280000Y40485000D03*
X56740000Y40485000D03*
X56740000Y32865000D03*
X59280000Y32865000D03*
X61820000Y32865000D03*
X64360000Y32865000D03*
X66900000Y32865000D03*
X69440000Y32865000D03*
X71980000Y32865000D03*
X74520000Y32865000D03*
X74520000Y20800000D03*
X71980000Y20800000D03*
X69440000Y20800000D03*
X66900000Y20800000D03*
X64360000Y20800000D03*
X61820000Y20800000D03*
X59280000Y20800000D03*
X56740000Y20800000D03*
X56740000Y13180000D03*
X59280000Y13180000D03*
X61820000Y13180000D03*
X64360000Y13180000D03*
X66900000Y13180000D03*
X69440000Y13180000D03*
X71980000Y13180000D03*
X74520000Y13180000D03*
D21*
X34203874Y1778105D03*
X2145270Y15494890D03*
X1495000Y36040012D03*
X-410000Y18260002D03*
X35711471Y46585067D03*
X29682176Y45535052D03*
X2130000Y18260000D03*
X30726022Y37894123D03*
X33063820Y38012447D03*
X37175508Y35387156D03*
X63511809Y37789306D03*
X73207810Y36587323D03*
X69412123Y34993980D03*
X30031900Y18272700D03*
X32809512Y18427917D03*
X37351409Y15680314D03*
D22*
X78236637Y3219340D03*
D21*
X58614866Y17620578D03*
X68264247Y16941487D03*
D22*
X64360000Y20800000D03*
D21*
X64787588Y15751871D03*
D23*
X62220000Y3000000D02*
X62220000Y2046000D01*
X62220000Y2046000D02*
X62270000Y1996000D01*
X62270000Y1996000D02*
X62270000Y26000D01*
X59720000Y3000000D02*
X59720000Y2006000D01*
X59720000Y2006000D02*
X59730000Y1996000D01*
X59730000Y1996000D02*
X59730000Y26000D01*
X54654000Y3066000D02*
X54654000Y2000000D01*
X54654000Y2000000D02*
X54650000Y1996000D01*
X54650000Y26000D02*
X54650000Y1996000D01*
X52110000Y26000D02*
X52110000Y1996000D01*
X52110000Y1996000D02*
X52114000Y2000000D01*
X14068000Y2054000D02*
X14010000Y1996000D01*
X14010000Y26000D02*
X14010000Y1996000D01*
X49578000Y2004000D02*
X49570000Y1996000D01*
X49570000Y26000D02*
X49570000Y1996000D01*
X46961000Y2065000D02*
X47030000Y1996000D01*
X47030000Y26000D02*
X47030000Y1996000D01*
X44421000Y2065000D02*
X44490000Y1996000D01*
X44490000Y26000D02*
X44490000Y1996000D01*
X41881000Y2065000D02*
X41950000Y1996000D01*
X41950000Y26000D02*
X41950000Y1996000D01*
X39402000Y2004000D02*
X39410000Y1996000D01*
X39410000Y26000D02*
X39410000Y1996000D01*
X36878000Y2004000D02*
X36870000Y1996000D01*
X36870000Y26000D02*
X36870000Y1996000D01*
X25520941Y30559059D02*
X48719059Y30559059D01*
X21945000Y34135000D02*
X25520941Y30559059D01*
X20545000Y34135000D02*
X21945000Y34135000D01*
X48719059Y30559059D02*
X52295000Y34135000D01*
X-11205000Y34770000D02*
X-11205000Y33370000D01*
X-12608868Y31966132D02*
X-12608868Y18523868D01*
X-11205000Y33370000D02*
X-12608868Y31966132D01*
X-12608868Y18523868D02*
X-10570000Y16485000D01*
X-10570000Y16485000D02*
X-10570000Y15085000D01*
X24170000Y534000D02*
X27133535Y3497535D01*
X52230154Y3497535D02*
X52230154Y13879846D01*
X27133535Y3497535D02*
X52230154Y3497535D01*
X52230154Y13879846D02*
X51660000Y14450000D01*
X18640000Y16355000D02*
X13664990Y11379990D01*
X13664990Y11379990D02*
X-10465010Y11379990D01*
X-10465010Y11379990D02*
X-10570000Y11484980D01*
X-10570000Y11484980D02*
X-10570000Y15085000D01*
X24170000Y26000D02*
X24170000Y534000D01*
X-9935000Y15720000D02*
X-10570000Y15085000D01*
X18640000Y19530000D02*
X20545000Y21435000D01*
X20545000Y21435000D02*
X20545000Y34135000D01*
X19145000Y16355000D02*
X18640000Y16355000D01*
X18640000Y16355000D02*
X18640000Y19530000D01*
X22450000Y14450000D02*
X21050000Y14450000D01*
X21050000Y14450000D02*
X19145000Y16355000D01*
X24170000Y534000D02*
X21571399Y3132601D01*
X21571399Y3132601D02*
X21571399Y12171399D01*
X21571399Y12171399D02*
X22450000Y13050000D01*
X22450000Y13050000D02*
X22450000Y14450000D01*
X29250000Y26000D02*
X26710000Y26000D01*
X30712000Y1996000D02*
X33985979Y1996000D01*
X29250000Y534000D02*
X30712000Y1996000D01*
X33985979Y1996000D02*
X34203874Y1778105D01*
X29250000Y26000D02*
X29250000Y534000D01*
X-2585513Y15494890D02*
X2145270Y15494890D01*
X-6940010Y19849387D02*
X-2585513Y15494890D01*
X30401723Y44285032D02*
X20787049Y44285032D01*
X-6940010Y21750613D02*
X-6940010Y19849387D01*
X3133918Y29306120D02*
X3133918Y26538918D01*
X3133918Y26538918D02*
X-804990Y22600010D01*
X13648590Y30772438D02*
X4600236Y30772438D01*
X-804990Y22600010D02*
X-6090613Y22600010D01*
X13648590Y37146573D02*
X13648590Y30772438D01*
X4600236Y30772438D02*
X3133918Y29306120D01*
X20787049Y44285032D02*
X13648590Y37146573D01*
X31401733Y45285043D02*
X30401723Y44285032D01*
X36409043Y45285043D02*
X31401733Y45285043D01*
X-6090613Y22600010D02*
X-6940010Y21750613D01*
X39410000Y48286000D02*
X36409043Y45285043D01*
X20710990Y46365990D02*
X10385012Y36040012D01*
X29959258Y48286000D02*
X29138010Y47464752D01*
X28310873Y46365990D02*
X20710990Y46365990D01*
X31790000Y48286000D02*
X29959258Y48286000D01*
X10385012Y36040012D02*
X1495000Y36040012D01*
X29138010Y47193127D02*
X28310873Y46365990D01*
X29138010Y47464752D02*
X29138010Y47193127D01*
X1529387Y22600010D02*
X-410000Y20660623D01*
X-410000Y20660623D02*
X-410000Y18260002D01*
X14648601Y23027814D02*
X14220797Y22600010D01*
X31815951Y44285032D02*
X30815941Y43285021D01*
X30815941Y43285021D02*
X21282790Y43285021D01*
X14220797Y22600010D02*
X1529387Y22600010D01*
X14648601Y36650832D02*
X14648601Y23027814D01*
X21282790Y43285021D02*
X14648601Y36650832D01*
X41950000Y47778000D02*
X38457032Y44285032D01*
X41950000Y48286000D02*
X41950000Y47778000D01*
X38457032Y44285032D02*
X31815951Y44285032D01*
X36361470Y47235066D02*
X35711471Y46585067D01*
X36870000Y47743596D02*
X36361470Y47235066D01*
X36870000Y48286000D02*
X36870000Y47743596D01*
X34330000Y47778000D02*
X32868000Y46316000D01*
X30463124Y46316000D02*
X29682176Y45535052D01*
X32868000Y46316000D02*
X30463124Y46316000D01*
X34330000Y48286000D02*
X34330000Y47778000D01*
X16100000Y22209377D02*
X12150623Y18260000D01*
X12150623Y18260000D02*
X2130000Y18260000D01*
X16100000Y36688002D02*
X16100000Y22209377D01*
X21697008Y42285010D02*
X16100000Y36688002D01*
X31230159Y42285010D02*
X21697008Y42285010D01*
X32230169Y43285021D02*
X31230159Y42285010D01*
X39997021Y43285021D02*
X32230169Y43285021D01*
X44490000Y47778000D02*
X39997021Y43285021D01*
X44490000Y48286000D02*
X44490000Y47778000D01*
X32644387Y42285010D02*
X30726022Y40366645D01*
X30726022Y40366645D02*
X30726022Y37894123D01*
X49652394Y45746000D02*
X46191404Y42285010D01*
X80050000Y45746000D02*
X49652394Y45746000D01*
X46191404Y42285010D02*
X32644387Y42285010D01*
X33983058Y38012447D02*
X33063820Y38012447D01*
X45096084Y38012447D02*
X33983058Y38012447D01*
X51051636Y43967999D02*
X45096084Y38012447D01*
X79288001Y43967999D02*
X51051636Y43967999D01*
X80050000Y43206000D02*
X79288001Y43967999D01*
X45178815Y35387156D02*
X37175508Y35387156D01*
X80050000Y40666000D02*
X78430990Y42285010D01*
X52076669Y42285010D02*
X45178815Y35387156D01*
X78430990Y42285010D02*
X52076669Y42285010D01*
X63848503Y38126000D02*
X63511809Y37789306D01*
X80050000Y38126000D02*
X63848503Y38126000D01*
X80050000Y35586000D02*
X79048677Y36587323D01*
X74127048Y36587323D02*
X73207810Y36587323D01*
X79048677Y36587323D02*
X74127048Y36587323D01*
X80050000Y33046000D02*
X78102020Y34993980D01*
X78102020Y34993980D02*
X70331361Y34993980D01*
X70331361Y34993980D02*
X69412123Y34993980D01*
X32330377Y22886000D02*
X30031900Y20587523D01*
X55011149Y22886000D02*
X32330377Y22886000D01*
X80050000Y22886000D02*
X79288001Y23647999D01*
X79288001Y23647999D02*
X55773147Y23647999D01*
X55773147Y23647999D02*
X55011149Y22886000D01*
X30031900Y20587523D02*
X30031900Y18272700D01*
X51416048Y21885989D02*
X47957976Y18427917D01*
X55425367Y21885989D02*
X51416048Y21885989D01*
X56187366Y22647988D02*
X55425367Y21885989D01*
X47957976Y18427917D02*
X32809512Y18427917D01*
X80050000Y20346000D02*
X77748012Y22647988D01*
X77748012Y22647988D02*
X56187366Y22647988D01*
X54393308Y17031112D02*
X38702207Y17031112D01*
X55216000Y11275000D02*
X54393308Y12097692D01*
X62963000Y11275000D02*
X55216000Y11275000D01*
X64987214Y5694786D02*
X64987214Y9250786D01*
X64987214Y9250786D02*
X62963000Y11275000D01*
X67462660Y3219340D02*
X64987214Y5694786D01*
X54393308Y12097692D02*
X54393308Y17031112D01*
X78236637Y3219340D02*
X67462660Y3219340D01*
X38702207Y17031112D02*
X37351409Y15680314D01*
X32737000Y14069000D02*
X32737000Y13180000D01*
X32737000Y13180000D02*
X32675000Y13210000D01*
X60067011Y17620578D02*
X59534104Y17620578D01*
X61309722Y18863289D02*
X60067011Y17620578D01*
X59534104Y17620578D02*
X58614866Y17620578D01*
X76452711Y18863289D02*
X61309722Y18863289D01*
X80050000Y15266000D02*
X76452711Y18863289D01*
X75834513Y16941487D02*
X68264247Y16941487D01*
X80050000Y12726000D02*
X75834513Y16941487D01*
X80050000Y10186000D02*
X74754307Y15481693D01*
X74754307Y15481693D02*
X65057766Y15481693D01*
X65057766Y15481693D02*
X64787588Y15751871D01*
M02*
