G04 #@! TF.FileFunction,Copper,L2,Bot,Signal*
%FSLAX46Y46*%
G04 Gerber Fmt 4.6, Leading zero omitted, Abs format (unit mm)*
G04 Created by KiCad (PCBNEW 4.0.1-stable) date 2/24/2016 7:59:54 PM*
%MOMM*%
G01*
G04 APERTURE LIST*
%ADD10C,0.100000*%
%ADD11O,1.524000X2.540000*%
%ADD12C,1.524000*%
%ADD13O,1.600000X2.300000*%
%ADD14R,1.727200X1.727200*%
%ADD15O,1.727200X1.727200*%
%ADD16R,2.032000X2.032000*%
%ADD17O,2.032000X2.032000*%
%ADD18C,1.998980*%
%ADD19R,1.400000X1.400000*%
%ADD20C,1.400000*%
%ADD21C,1.300000*%
%ADD22C,1.200000*%
%ADD23C,0.700000*%
%ADD24C,0.254000*%
G04 APERTURE END LIST*
D10*
D11*
X54650000Y48286000D03*
X57190000Y48286000D03*
X59730000Y48286000D03*
X62270000Y48286000D03*
X64810000Y48286000D03*
X67350000Y48286000D03*
X69890000Y48286000D03*
X72430000Y48286000D03*
X77510000Y26000D03*
X74970000Y26000D03*
X72430000Y26000D03*
X69890000Y26000D03*
X59730000Y26000D03*
X54650000Y26000D03*
X52110000Y26000D03*
X62270000Y26000D03*
X64810000Y26000D03*
X67350000Y26000D03*
X49570000Y26000D03*
X47030000Y26000D03*
X44490000Y26000D03*
X36870000Y26000D03*
X39410000Y26000D03*
X41950000Y26000D03*
X31790000Y26000D03*
X29250000Y26000D03*
X26710000Y26000D03*
X21630000Y26000D03*
X19090000Y26000D03*
X49570000Y48286000D03*
X47030000Y48286000D03*
X44490000Y48286000D03*
X41950000Y48286000D03*
X39410000Y48286000D03*
X36870000Y48286000D03*
X34330000Y48286000D03*
X31790000Y48286000D03*
X27726000Y48286000D03*
X25186000Y48286000D03*
X22646000Y48286000D03*
X20106000Y48286000D03*
X17566000Y48286000D03*
X15026000Y48286000D03*
X12486000Y48286000D03*
X9946000Y48286000D03*
X24170000Y26000D03*
D12*
X80050000Y45746000D03*
X82590000Y45746000D03*
X80050000Y43206000D03*
X82590000Y43206000D03*
X80050000Y40666000D03*
X82590000Y40666000D03*
X80050000Y38126000D03*
X82590000Y38126000D03*
X80050000Y48286000D03*
X82590000Y48286000D03*
X82590000Y35586000D03*
X80050000Y35586000D03*
X80050000Y33046000D03*
X82590000Y33046000D03*
X80050000Y30506000D03*
X82590000Y30506000D03*
X80050000Y27966000D03*
X82590000Y27966000D03*
X80050000Y25426000D03*
X82590000Y25426000D03*
X80050000Y22886000D03*
X82590000Y22886000D03*
X80050000Y20346000D03*
X82590000Y20346000D03*
X80050000Y17806000D03*
X82590000Y17806000D03*
X80050000Y15266000D03*
X82590000Y15266000D03*
X80050000Y12726000D03*
X82590000Y12726000D03*
X80050000Y10186000D03*
X82590000Y10186000D03*
X80050000Y7646000D03*
X82590000Y7646000D03*
X80050000Y5106000D03*
X82590000Y5106000D03*
D11*
X16550000Y26000D03*
X14010000Y26000D03*
X7406000Y48286000D03*
X4866000Y48286000D03*
D13*
X12290000Y20800000D03*
X9750000Y20800000D03*
X7210000Y20800000D03*
X4670000Y20800000D03*
X2130000Y20800000D03*
X-410000Y20800000D03*
X-2950000Y20800000D03*
X-5490000Y20800000D03*
X-5490000Y13180000D03*
X-2950000Y13180000D03*
X-410000Y13180000D03*
X2130000Y13180000D03*
X4670000Y13180000D03*
X7210000Y13180000D03*
X9750000Y13180000D03*
X12290000Y13180000D03*
X11865000Y40855000D03*
X9325000Y40855000D03*
X6785000Y40855000D03*
X4245000Y40855000D03*
X1705000Y40855000D03*
X-835000Y40855000D03*
X-3375000Y40855000D03*
X-5915000Y40855000D03*
X-5915000Y33235000D03*
X-3375000Y33235000D03*
X-835000Y33235000D03*
X1705000Y33235000D03*
X4245000Y33235000D03*
X6785000Y33235000D03*
X9325000Y33235000D03*
X11865000Y33235000D03*
X42835000Y20830000D03*
X40295000Y20830000D03*
X37755000Y20830000D03*
X35215000Y20830000D03*
X32675000Y20830000D03*
X30135000Y20830000D03*
X27595000Y20830000D03*
X25055000Y20830000D03*
X25055000Y13210000D03*
X27595000Y13210000D03*
X30135000Y13210000D03*
X32675000Y13210000D03*
X35215000Y13210000D03*
X37755000Y13210000D03*
X40295000Y13210000D03*
X42835000Y13210000D03*
X43405000Y40485000D03*
X40865000Y40485000D03*
X38325000Y40485000D03*
X35785000Y40485000D03*
X33245000Y40485000D03*
X30705000Y40485000D03*
X28165000Y40485000D03*
X25625000Y40485000D03*
X25625000Y32865000D03*
X28165000Y32865000D03*
X30705000Y32865000D03*
X33245000Y32865000D03*
X35785000Y32865000D03*
X38325000Y32865000D03*
X40865000Y32865000D03*
X43405000Y32865000D03*
D14*
X18640000Y25245000D03*
D15*
X18640000Y22705000D03*
D14*
X5940000Y8735000D03*
D15*
X5940000Y6195000D03*
X8480000Y8735000D03*
X8480000Y6195000D03*
X11020000Y8735000D03*
X11020000Y6195000D03*
X13560000Y8735000D03*
X13560000Y6195000D03*
D14*
X-7395000Y8735000D03*
D15*
X-7395000Y6195000D03*
X-4855000Y8735000D03*
X-4855000Y6195000D03*
X-2315000Y8735000D03*
X-2315000Y6195000D03*
X225000Y8735000D03*
X225000Y6195000D03*
D16*
X50390000Y27150000D03*
D17*
X50390000Y24610000D03*
D14*
X5515000Y28790000D03*
D15*
X5515000Y26250000D03*
X8055000Y28790000D03*
X8055000Y26250000D03*
X10595000Y28790000D03*
X10595000Y26250000D03*
X13135000Y28790000D03*
X13135000Y26250000D03*
D14*
X-7820000Y28790000D03*
D15*
X-7820000Y26250000D03*
X-5280000Y28790000D03*
X-5280000Y26250000D03*
X-2740000Y28790000D03*
X-2740000Y26250000D03*
X-200000Y28790000D03*
X-200000Y26250000D03*
D14*
X36420000Y8735000D03*
D15*
X36420000Y6195000D03*
X38960000Y8735000D03*
X38960000Y6195000D03*
X41500000Y8735000D03*
X41500000Y6195000D03*
X44040000Y8735000D03*
X44040000Y6195000D03*
D14*
X23085000Y8735000D03*
D15*
X23085000Y6195000D03*
X25625000Y8735000D03*
X25625000Y6195000D03*
X28165000Y8735000D03*
X28165000Y6195000D03*
X30705000Y8735000D03*
X30705000Y6195000D03*
D14*
X37055000Y28420000D03*
D15*
X37055000Y25880000D03*
X39595000Y28420000D03*
X39595000Y25880000D03*
X42135000Y28420000D03*
X42135000Y25880000D03*
X44675000Y28420000D03*
X44675000Y25880000D03*
D14*
X24355000Y28420000D03*
D15*
X24355000Y25880000D03*
X26895000Y28420000D03*
X26895000Y25880000D03*
X29435000Y28420000D03*
X29435000Y25880000D03*
X31975000Y28420000D03*
X31975000Y25880000D03*
D18*
X-13110000Y50010000D03*
X-13110000Y-2060000D03*
X83410000Y51280000D03*
X83410000Y-3330000D03*
D19*
X51660000Y14450000D03*
D20*
X51660000Y19450000D03*
D19*
X52295000Y34135000D03*
D20*
X52295000Y39135000D03*
D19*
X22450000Y14450000D03*
D20*
X22450000Y19450000D03*
D19*
X20545000Y34135000D03*
D20*
X20545000Y39135000D03*
D19*
X-10570000Y15085000D03*
D20*
X-10570000Y20085000D03*
D19*
X-11205000Y34770000D03*
D20*
X-11205000Y39770000D03*
D14*
X67535000Y28420000D03*
D15*
X67535000Y25880000D03*
X70075000Y28420000D03*
X70075000Y25880000D03*
X72615000Y28420000D03*
X72615000Y25880000D03*
X75155000Y28420000D03*
X75155000Y25880000D03*
D14*
X54835000Y28420000D03*
D15*
X54835000Y25880000D03*
X57375000Y28420000D03*
X57375000Y25880000D03*
X59915000Y28420000D03*
X59915000Y25880000D03*
X62455000Y28420000D03*
X62455000Y25880000D03*
D14*
X49755000Y8735000D03*
D15*
X49755000Y6195000D03*
D14*
X67535000Y8735000D03*
D15*
X67535000Y6195000D03*
X70075000Y8735000D03*
X70075000Y6195000D03*
X72615000Y8735000D03*
X72615000Y6195000D03*
X75155000Y8735000D03*
X75155000Y6195000D03*
D14*
X54835000Y8735000D03*
D15*
X54835000Y6195000D03*
X57375000Y8735000D03*
X57375000Y6195000D03*
X59915000Y8735000D03*
X59915000Y6195000D03*
X62455000Y8735000D03*
X62455000Y6195000D03*
D13*
X74520000Y40485000D03*
X71980000Y40485000D03*
X69440000Y40485000D03*
X66900000Y40485000D03*
X64360000Y40485000D03*
X61820000Y40485000D03*
X59280000Y40485000D03*
X56740000Y40485000D03*
X56740000Y32865000D03*
X59280000Y32865000D03*
X61820000Y32865000D03*
X64360000Y32865000D03*
X66900000Y32865000D03*
X69440000Y32865000D03*
X71980000Y32865000D03*
X74520000Y32865000D03*
X74520000Y20800000D03*
X71980000Y20800000D03*
X69440000Y20800000D03*
X66900000Y20800000D03*
X64360000Y20800000D03*
X61820000Y20800000D03*
X59280000Y20800000D03*
X56740000Y20800000D03*
X56740000Y13180000D03*
X59280000Y13180000D03*
X61820000Y13180000D03*
X64360000Y13180000D03*
X66900000Y13180000D03*
X69440000Y13180000D03*
X71980000Y13180000D03*
X74520000Y13180000D03*
D21*
X34203874Y1778105D03*
X2145270Y15494890D03*
X1495000Y36040012D03*
X-410000Y18260002D03*
X35711471Y46585067D03*
X29682176Y45535052D03*
X2130000Y18260000D03*
X30726022Y37894123D03*
X33063820Y38012447D03*
X37175508Y35387156D03*
X63511809Y37789306D03*
X73207810Y36587323D03*
X69412123Y34993980D03*
X30031900Y18272700D03*
X32809512Y18427917D03*
X37351409Y15680314D03*
D22*
X78236637Y3219340D03*
D21*
X58614866Y17620578D03*
X68264247Y16941487D03*
D22*
X64360000Y20800000D03*
D21*
X64787588Y15751871D03*
D23*
X60526487Y15905678D02*
X54515678Y15905678D01*
X54515678Y15905678D02*
X53060000Y14450000D01*
X61820000Y17199191D02*
X60526487Y15905678D01*
X53060000Y14450000D02*
X51660000Y14450000D01*
X34395689Y35439748D02*
X32929748Y35439748D01*
X35643117Y36687176D02*
X34395689Y35439748D01*
X43405000Y32865000D02*
X43405000Y33215000D01*
X43405000Y33215000D02*
X39932824Y36687176D01*
X39932824Y36687176D02*
X35643117Y36687176D01*
X74520000Y13530000D02*
X74520000Y13180000D01*
X72555651Y15494349D02*
X74520000Y13530000D01*
X65672144Y17199191D02*
X67376986Y15494349D01*
X65672144Y17199191D02*
X61820000Y17199191D01*
X67376986Y15494349D02*
X72555651Y15494349D01*
X70528024Y36294000D02*
X61947000Y36294000D01*
X74520000Y33215000D02*
X73020000Y34715000D01*
X72107024Y34715000D02*
X70528024Y36294000D01*
X74520000Y32865000D02*
X74520000Y33215000D01*
X73020000Y34715000D02*
X72107024Y34715000D01*
X61947000Y36294000D02*
X55854000Y36294000D01*
X61947000Y36294000D02*
X61820000Y36167000D01*
X61820000Y36167000D02*
X61820000Y32865000D01*
X55854000Y36294000D02*
X53695000Y34135000D01*
X53695000Y34135000D02*
X52295000Y34135000D01*
X-835000Y33235000D02*
X-835000Y37596586D01*
X-835000Y37596586D02*
X566580Y37596586D01*
X61820000Y17199191D02*
X61820000Y13180000D01*
X32929748Y35439748D02*
X32916236Y35453260D01*
X32916236Y35453260D02*
X23263260Y35453260D01*
X21945000Y34135000D02*
X20545000Y34135000D01*
X23263260Y35453260D02*
X21945000Y34135000D01*
X32929748Y35439748D02*
X30705000Y35439748D01*
X30705000Y35439748D02*
X30705000Y32865000D01*
X-11205000Y34770000D02*
X-11205000Y34821994D01*
X-8409000Y37617994D02*
X545172Y37617994D01*
X-11205000Y34821994D02*
X-8409000Y37617994D01*
X545172Y37617994D02*
X566580Y37596586D01*
X566580Y37596586D02*
X578845Y37608851D01*
X11865000Y33585000D02*
X11865000Y33235000D01*
X578845Y37608851D02*
X7841149Y37608851D01*
X7841149Y37608851D02*
X11865000Y33585000D01*
X9000308Y16819692D02*
X-410000Y16819692D01*
X-410000Y16819692D02*
X-10360240Y16819692D01*
X-410000Y13180000D02*
X-410000Y16819692D01*
X12290000Y13180000D02*
X12290000Y13530000D01*
X-10360240Y16819692D02*
X-10360240Y15294760D01*
X12290000Y13530000D02*
X9000308Y16819692D01*
X-10360240Y15294760D02*
X-10570000Y15085000D01*
X-410000Y13765394D02*
X-410000Y13180000D01*
X-835000Y33585000D02*
X-835000Y33235000D01*
X30070000Y15720000D02*
X33125939Y15720000D01*
X42835000Y13560000D02*
X42835000Y13210000D01*
X33125939Y15720000D02*
X34533836Y17127897D01*
X34533836Y17127897D02*
X39267103Y17127897D01*
X39267103Y17127897D02*
X42835000Y13560000D01*
X61670016Y33215000D02*
X61820000Y33215000D01*
X22450000Y14450000D02*
X23850000Y14450000D01*
X23850000Y14450000D02*
X25120000Y15720000D01*
X25120000Y15720000D02*
X30070000Y15720000D01*
X30070000Y15720000D02*
X30135000Y15655000D01*
X30135000Y15655000D02*
X30135000Y13210000D01*
X61820000Y13180000D02*
X61820000Y13530000D01*
X49755000Y8735000D02*
X49755000Y6195000D01*
X51660000Y14450000D02*
X51660000Y9076400D01*
X51660000Y9076400D02*
X51318600Y8735000D01*
X51318600Y8735000D02*
X49755000Y8735000D01*
X18640000Y25245000D02*
X18640000Y26808600D01*
X18640000Y26808600D02*
X20545000Y28713600D01*
X20545000Y28713600D02*
X20545000Y34135000D01*
X18640000Y25245000D02*
X18640000Y22705000D01*
X50390000Y27150000D02*
X50390000Y24610000D01*
X50390000Y27150000D02*
X50390000Y33630000D01*
X50390000Y33630000D02*
X50895000Y34135000D01*
X50895000Y34135000D02*
X52295000Y34135000D01*
X30070000Y13275000D02*
X30135000Y13210000D01*
X61820000Y33215000D02*
X61820000Y32865000D01*
X51660000Y19450000D02*
X47288660Y15078660D01*
X47288660Y15078660D02*
X47288660Y3093660D01*
X47288660Y3093660D02*
X47215000Y3020000D01*
X44040000Y6195000D02*
X47215000Y3020000D01*
X47215000Y3020000D02*
X51660000Y3020000D01*
X51660000Y3020000D02*
X53321399Y4681399D01*
X35785000Y38243288D02*
X33994983Y36453271D01*
X35785000Y40485000D02*
X35785000Y38243288D01*
X25625000Y40135000D02*
X25625000Y40485000D01*
X33994983Y36453271D02*
X29306729Y36453271D01*
X29306729Y36453271D02*
X25625000Y40135000D01*
X-5490000Y20800000D02*
X-6013259Y20276741D01*
X-6013259Y20276741D02*
X-10378259Y20276741D01*
X-10378259Y20276741D02*
X-10570000Y20085000D01*
X64995000Y6195000D02*
X65511084Y6711084D01*
X65511084Y6711084D02*
X65511084Y11442928D01*
X65511084Y11442928D02*
X66900000Y12831844D01*
X66900000Y12831844D02*
X66900000Y13180000D01*
X54835000Y6195000D02*
X62770896Y6195000D01*
X62770896Y6195000D02*
X64080363Y7504467D01*
X64080363Y7504467D02*
X64080363Y10586181D01*
X64080363Y10586181D02*
X61523819Y10586181D01*
X61523819Y10586181D02*
X59280000Y12830000D01*
X59280000Y12830000D02*
X59280000Y13180000D01*
X-3375000Y33235000D02*
X-3375000Y33585000D01*
X-3375000Y33585000D02*
X-5332757Y35542757D01*
X-5332757Y35542757D02*
X-6520252Y35542757D01*
X-6520252Y35542757D02*
X-9333601Y32729408D01*
X-9333601Y32729408D02*
X-9333601Y32217022D01*
X-3375000Y33235000D02*
X-3375000Y33768644D01*
X-9333601Y32217022D02*
X-12921789Y32217022D01*
X-12921789Y32217022D02*
X-12921789Y38053211D01*
X-12921789Y38053211D02*
X-11205000Y39770000D01*
X33245000Y6195000D02*
X33205495Y6234505D01*
X33205495Y6234505D02*
X33205495Y10850495D01*
X33205495Y10850495D02*
X33245000Y10890000D01*
X33245000Y2736979D02*
X34203874Y1778105D01*
X33245000Y6195000D02*
X33245000Y2736979D01*
X51660000Y19450000D02*
X49487922Y19450000D01*
X49487922Y19450000D02*
X44675000Y24262922D01*
X44675000Y24262922D02*
X44675000Y25880000D01*
X-7395000Y6195000D02*
X-8258599Y7058599D01*
X-8258599Y7058599D02*
X-8615801Y7058599D01*
X-8615801Y7058599D02*
X-12327868Y10770666D01*
X-12327868Y10770666D02*
X-12327868Y18327132D01*
X-12327868Y18327132D02*
X-10570000Y20085000D01*
X70075000Y25880000D02*
X72615000Y25880000D01*
X72615000Y25880000D02*
X75155000Y25880000D01*
X67535000Y25880000D02*
X70075000Y25880000D01*
X54835000Y25880000D02*
X57375000Y25880000D01*
X57375000Y25880000D02*
X59915000Y25880000D01*
X59915000Y25880000D02*
X62455000Y25880000D01*
X28165000Y6195000D02*
X30705000Y6195000D01*
X25625000Y6195000D02*
X28165000Y6195000D01*
X23085000Y6195000D02*
X25625000Y6195000D01*
X56740000Y20800000D02*
X55240000Y20800000D01*
X54847305Y23352305D02*
X57375000Y25880000D01*
X55240000Y20800000D02*
X54847305Y21192695D01*
X34515000Y25880000D02*
X35215000Y25180000D01*
X54847305Y21192695D02*
X54847305Y23352305D01*
X35215000Y25180000D02*
X35215000Y20830000D01*
X56740000Y40485000D02*
X59280000Y40485000D01*
X53645000Y40485000D02*
X56740000Y40485000D01*
X44675000Y26179870D02*
X44675000Y25880000D01*
X52295000Y39135000D02*
X47214999Y34054999D01*
X47214999Y34054999D02*
X47214999Y28719869D01*
X47214999Y28719869D02*
X44675000Y26179870D01*
X59280000Y40485000D02*
X59280000Y40835000D01*
X59280000Y40835000D02*
X60780000Y42335000D01*
X60780000Y42335000D02*
X65400000Y42335000D01*
X65400000Y42335000D02*
X66900000Y40835000D01*
X66900000Y40835000D02*
X66900000Y40485000D01*
X53321399Y4681399D02*
X54835000Y6195000D01*
X11020000Y6195000D02*
X13560000Y6195000D01*
X8480000Y6195000D02*
X11020000Y6195000D01*
X5940000Y6195000D02*
X8480000Y6195000D01*
X2765000Y6195000D02*
X5940000Y6195000D01*
X225000Y6195000D02*
X2765000Y6195000D01*
X-2315000Y6195000D02*
X225000Y6195000D01*
X-4855000Y6195000D02*
X-2315000Y6195000D01*
X-7395000Y6195000D02*
X-4855000Y6195000D01*
X10595000Y26250000D02*
X13135000Y26250000D01*
X8055000Y26250000D02*
X10595000Y26250000D01*
X5515000Y26250000D02*
X8055000Y26250000D01*
X2130000Y26250000D02*
X5515000Y26250000D01*
X-200000Y26250000D02*
X2130000Y26250000D01*
X-2740000Y26250000D02*
X-200000Y26250000D01*
X-5280000Y26250000D02*
X-2740000Y26250000D01*
X-7820000Y26250000D02*
X-5280000Y26250000D01*
X72615000Y6195000D02*
X75155000Y6195000D01*
X70075000Y6195000D02*
X72615000Y6195000D01*
X67535000Y6195000D02*
X70075000Y6195000D01*
X59915000Y6195000D02*
X62455000Y6195000D01*
X62455000Y6195000D02*
X64995000Y6195000D01*
X57375000Y6195000D02*
X59915000Y6195000D01*
X54835000Y6195000D02*
X57375000Y6195000D01*
X41500000Y6195000D02*
X44040000Y6195000D01*
X38960000Y6195000D02*
X41500000Y6195000D01*
X36420000Y6195000D02*
X38960000Y6195000D01*
X67535000Y25880000D02*
X67535000Y21435000D01*
X67535000Y21435000D02*
X66900000Y20800000D01*
X20545000Y39135000D02*
X19194999Y37784999D01*
X19194999Y37784999D02*
X19194999Y32309999D01*
X19194999Y32309999D02*
X13135000Y26250000D01*
X-9041314Y26250000D02*
X-7820000Y26250000D01*
X-9333601Y26542287D02*
X-9041314Y26250000D01*
X-9333601Y32217022D02*
X-9333601Y26542287D01*
X-3375000Y40855000D02*
X-3375000Y40505000D01*
X-3375000Y40505000D02*
X-1875000Y39005000D01*
X-1875000Y39005000D02*
X2745000Y39005000D01*
X4245000Y40505000D02*
X4245000Y40855000D01*
X2745000Y39005000D02*
X4245000Y40505000D01*
X22450000Y19450000D02*
X22450000Y23975000D01*
X22450000Y23975000D02*
X24355000Y25880000D01*
X-7820000Y26250000D02*
X-10570000Y23500000D01*
X-10570000Y23500000D02*
X-10570000Y20085000D01*
X5515000Y26250000D02*
X5515000Y21645000D01*
X5515000Y21645000D02*
X4670000Y20800000D01*
X22450000Y19450000D02*
X18713686Y19450000D01*
X18713686Y19450000D02*
X13135000Y25028686D01*
X13135000Y25028686D02*
X13135000Y26250000D01*
X25055000Y20830000D02*
X23830000Y20830000D01*
X23830000Y20830000D02*
X22450000Y19450000D01*
X27595000Y20830000D02*
X25055000Y20830000D01*
X56740000Y20800000D02*
X59280000Y20800000D01*
X51660000Y19450000D02*
X55390000Y19450000D01*
X55390000Y19450000D02*
X56740000Y20800000D01*
X33245000Y10890000D02*
X29565000Y10890000D01*
X29565000Y10890000D02*
X27595000Y12860000D01*
X27595000Y12860000D02*
X27595000Y13210000D01*
X33245000Y6195000D02*
X36420000Y6195000D01*
X30705000Y6195000D02*
X33245000Y6195000D01*
X33245000Y10890000D02*
X35215000Y12860000D01*
X35215000Y12860000D02*
X35215000Y13210000D01*
X2765000Y10925000D02*
X-1045000Y10925000D01*
X-1045000Y10925000D02*
X-2950000Y12830000D01*
X-2950000Y12830000D02*
X-2950000Y13180000D01*
X2765000Y6195000D02*
X2765000Y10925000D01*
X2765000Y10925000D02*
X4670000Y12830000D01*
X4670000Y12830000D02*
X4670000Y13180000D01*
X2130000Y30770000D02*
X-1260000Y30770000D01*
X-1260000Y30770000D02*
X-3375000Y32885000D01*
X-3375000Y32885000D02*
X-3375000Y33235000D01*
X2130000Y30770000D02*
X4245000Y32885000D01*
X2130000Y26250000D02*
X2130000Y30770000D01*
X4245000Y32885000D02*
X4245000Y33235000D01*
X64995000Y6195000D02*
X67535000Y6195000D01*
X-2950000Y20800000D02*
X-5490000Y20800000D01*
X-5915000Y40855000D02*
X-10120000Y40855000D01*
X-10120000Y40855000D02*
X-11205000Y39770000D01*
X-3375000Y40855000D02*
X-5915000Y40855000D01*
X25625000Y40485000D02*
X21895000Y40485000D01*
X21895000Y40485000D02*
X20545000Y39135000D01*
X28165000Y40485000D02*
X25625000Y40485000D01*
X42135000Y25880000D02*
X44675000Y25880000D01*
X39595000Y25880000D02*
X42135000Y25880000D01*
X37055000Y25880000D02*
X39595000Y25880000D01*
X29435000Y25880000D02*
X31975000Y25880000D01*
X26895000Y25880000D02*
X29435000Y25880000D01*
X24355000Y25880000D02*
X26895000Y25880000D01*
X34515000Y29745000D02*
X34326399Y29933601D01*
X34326399Y29933601D02*
X30746399Y29933601D01*
X30746399Y29933601D02*
X28165000Y32515000D01*
X28165000Y32515000D02*
X28165000Y32865000D01*
X34515000Y25880000D02*
X37055000Y25880000D01*
X31975000Y25880000D02*
X34515000Y25880000D01*
X34515000Y25880000D02*
X34515000Y29745000D01*
X34515000Y29745000D02*
X35785000Y31015000D01*
X35785000Y31015000D02*
X35785000Y32865000D01*
X64360000Y29975000D02*
X61820000Y29975000D01*
X61820000Y29975000D02*
X59280000Y32515000D01*
X59280000Y32515000D02*
X59280000Y32865000D01*
X64360000Y25880000D02*
X67535000Y25880000D01*
X62455000Y25880000D02*
X64360000Y25880000D01*
X64360000Y25880000D02*
X64360000Y29975000D01*
X64360000Y29975000D02*
X66900000Y32515000D01*
X66900000Y32515000D02*
X66900000Y32865000D01*
X53645000Y40485000D02*
X52295000Y39135000D01*
X2130000Y15479620D02*
X2145270Y15494890D01*
X2130000Y13180000D02*
X2130000Y15479620D01*
X1705000Y35830012D02*
X1495000Y36040012D01*
X1705000Y33235000D02*
X1705000Y35830012D01*
X28165000Y8735000D02*
X30705000Y8735000D01*
X25625000Y8735000D02*
X28165000Y8735000D01*
X23085000Y8735000D02*
X25625000Y8735000D01*
X23085000Y8735000D02*
X23085000Y11240000D01*
X23085000Y11240000D02*
X25055000Y13210000D01*
X-410000Y20800000D02*
X-410000Y18260002D01*
X1705000Y40855000D02*
X1705000Y41205000D01*
X1705000Y41205000D02*
X4359297Y43859297D01*
X4359297Y43859297D02*
X32985701Y43859297D01*
X32985701Y43859297D02*
X35711471Y46585067D01*
X2130000Y41280000D02*
X1705000Y40855000D01*
X-835000Y41205000D02*
X3495052Y45535052D01*
X-835000Y40855000D02*
X-835000Y41205000D01*
X3495052Y45535052D02*
X29682176Y45535052D01*
X-410000Y41280000D02*
X-835000Y40855000D01*
X5940000Y8735000D02*
X5940000Y11910000D01*
X5940000Y11910000D02*
X7210000Y13180000D01*
X8480000Y8735000D02*
X8480000Y11910000D01*
X8480000Y11910000D02*
X9750000Y13180000D01*
X13740010Y16459990D02*
X9750000Y20450000D01*
X11883599Y9694141D02*
X13740010Y11550552D01*
X9750000Y20450000D02*
X9750000Y20800000D01*
X11883599Y9598599D02*
X11883599Y9694141D01*
X11020000Y8735000D02*
X11883599Y9598599D01*
X13740010Y11550552D02*
X13740010Y16459990D01*
X13560000Y8735000D02*
X13559999Y9956315D01*
X13559999Y9956315D02*
X14740020Y11136335D01*
X14740020Y11136335D02*
X14740020Y16874207D01*
X14740020Y16874207D02*
X12290000Y19324226D01*
X12290000Y19324226D02*
X12290000Y20800000D01*
X-7395000Y8735000D02*
X-7395000Y11275000D01*
X-7395000Y11275000D02*
X-5490000Y13180000D01*
X-2315000Y8735000D02*
X225000Y8735000D01*
X-4855000Y8735000D02*
X-2315000Y8735000D01*
X-7395000Y8735000D02*
X-4855000Y8735000D01*
X5515000Y28790000D02*
X5515000Y31965000D01*
X5515000Y31965000D02*
X6785000Y33235000D01*
X8055000Y28790000D02*
X8055000Y31965000D01*
X8055000Y31965000D02*
X9325000Y33235000D01*
X13315010Y36514990D02*
X9325000Y40505000D01*
X13315010Y31510010D02*
X13315010Y36514990D01*
X10595000Y28790000D02*
X13315010Y31510010D01*
X9325000Y40505000D02*
X9325000Y40855000D01*
X11865000Y40505000D02*
X11865000Y40855000D01*
X14315021Y38054979D02*
X11865000Y40505000D01*
X14315021Y29970021D02*
X14315021Y38054979D01*
X13135000Y28790000D02*
X14315021Y29970021D01*
X-7820000Y28790000D02*
X-7820000Y31330000D01*
X-7820000Y31330000D02*
X-5915000Y33235000D01*
X-2740000Y28790000D02*
X-200000Y28790000D01*
X-5280000Y28790000D02*
X-2740000Y28790000D01*
X-7820000Y28790000D02*
X-5280000Y28790000D01*
X36420000Y8735000D02*
X36420000Y11875000D01*
X36420000Y11875000D02*
X37755000Y13210000D01*
X38960000Y8735000D02*
X38960000Y11875000D01*
X38960000Y11875000D02*
X40295000Y13210000D01*
X44285010Y11520010D02*
X44285010Y16489990D01*
X41500000Y8735000D02*
X44285010Y11520010D01*
X44285010Y16489990D02*
X40295000Y20480000D01*
X40295000Y20480000D02*
X40295000Y20830000D01*
X45675011Y17639989D02*
X42835000Y20480000D01*
X45675011Y10370011D02*
X45675011Y17639989D01*
X44040000Y8735000D02*
X45675011Y10370011D01*
X42835000Y20480000D02*
X42835000Y20830000D01*
X37055000Y28420000D02*
X37055000Y31595000D01*
X37055000Y31595000D02*
X38325000Y32865000D01*
X39595000Y28420000D02*
X39595000Y31595000D01*
X39595000Y31595000D02*
X40865000Y32865000D01*
X44855010Y31140010D02*
X44855010Y36144990D01*
X44855010Y36144990D02*
X40865000Y40135000D01*
X40865000Y40135000D02*
X40865000Y40485000D01*
X42135000Y28420000D02*
X44855010Y31140010D01*
X43405000Y40135000D02*
X43405000Y40485000D01*
X46214989Y37325011D02*
X43405000Y40135000D01*
X46214989Y29959989D02*
X46214989Y37325011D01*
X44675000Y28420000D02*
X46214989Y29959989D01*
X24355000Y28420000D02*
X24355000Y31595000D01*
X24355000Y31595000D02*
X25625000Y32865000D01*
X29435000Y28420000D02*
X31975000Y28420000D01*
X26895000Y28420000D02*
X29435000Y28420000D01*
X24355000Y28420000D02*
X26895000Y28420000D01*
X2130000Y20800000D02*
X2130000Y18260000D01*
X30705000Y37915145D02*
X30726022Y37894123D01*
X30705000Y40485000D02*
X30705000Y37915145D01*
X33245000Y40485000D02*
X33245000Y38193627D01*
X33245000Y38193627D02*
X33063820Y38012447D01*
X36525509Y34737157D02*
X37175508Y35387156D01*
X33245000Y32865000D02*
X35117157Y34737157D01*
X35117157Y34737157D02*
X36525509Y34737157D01*
X63511809Y38443191D02*
X63511809Y37789306D01*
X61820000Y40135000D02*
X63511809Y38443191D01*
X61820000Y40485000D02*
X61820000Y40135000D01*
X72557811Y37237322D02*
X73207810Y36587323D01*
X72450968Y37344165D02*
X72557811Y37237322D01*
X64360000Y40485000D02*
X64360000Y40135000D01*
X64360000Y40135000D02*
X67150835Y37344165D01*
X67150835Y37344165D02*
X72450968Y37344165D01*
X68492885Y34993980D02*
X69412123Y34993980D01*
X66138980Y34993980D02*
X68492885Y34993980D01*
X64360000Y32865000D02*
X64360000Y33215000D01*
X64360000Y33215000D02*
X66138980Y34993980D01*
X67535000Y28420000D02*
X67535000Y30960000D01*
X67535000Y30960000D02*
X69440000Y32865000D01*
X70075000Y28420000D02*
X70075000Y30960000D01*
X70075000Y30960000D02*
X71980000Y32865000D01*
X75970010Y31775010D02*
X75970010Y36494990D01*
X75970010Y36494990D02*
X71980000Y40485000D01*
X72615000Y28420000D02*
X75970010Y31775010D01*
X74520000Y40135000D02*
X74520000Y40485000D01*
X76970021Y37684979D02*
X74520000Y40135000D01*
X76970021Y30235021D02*
X76970021Y37684979D01*
X75155000Y28420000D02*
X76970021Y30235021D01*
X57375000Y28420000D02*
X57375000Y32230000D01*
X57375000Y32230000D02*
X56740000Y32865000D01*
X57375000Y28420000D02*
X54835000Y28420000D01*
X59915000Y28420000D02*
X57375000Y28420000D01*
X62455000Y28420000D02*
X59915000Y28420000D01*
X67535000Y8735000D02*
X67535000Y11275000D01*
X67535000Y11275000D02*
X69440000Y13180000D01*
X71980000Y10640000D02*
X71980000Y13180000D01*
X70075000Y8735000D02*
X71980000Y10640000D01*
X72615000Y8735000D02*
X75970010Y12090010D01*
X75970010Y12090010D02*
X75970010Y16459990D01*
X75970010Y16459990D02*
X71980000Y20450000D01*
X71980000Y20450000D02*
X71980000Y20800000D01*
X76970021Y17999979D02*
X74520000Y20450000D01*
X76970021Y10550021D02*
X76970021Y17999979D01*
X75155000Y8735000D02*
X76970021Y10550021D01*
X74520000Y20450000D02*
X74520000Y20800000D01*
X57375000Y8735000D02*
X59915000Y8735000D01*
X57375000Y8735000D02*
X57375000Y12545000D01*
X57375000Y12545000D02*
X56740000Y13180000D01*
X59915000Y8735000D02*
X62455000Y8735000D01*
X54835000Y8735000D02*
X57375000Y8735000D01*
X30031900Y18272700D02*
X30031900Y20726900D01*
X30031900Y20726900D02*
X30135000Y20830000D01*
X30070000Y20895000D02*
X30135000Y20830000D01*
X32675000Y18562429D02*
X32809512Y18427917D01*
X32675000Y20830000D02*
X32675000Y18562429D01*
X34795314Y15680314D02*
X37351409Y15680314D01*
X32675000Y13560000D02*
X34795314Y15680314D01*
X32675000Y13210000D02*
X32675000Y13560000D01*
X78236637Y15992637D02*
X78236637Y3219340D01*
X80050000Y17806000D02*
X78236637Y15992637D01*
X61564387Y20570099D02*
X59264865Y18270577D01*
X58990578Y17620578D02*
X58614866Y17620578D01*
X61820000Y20450000D02*
X58990578Y17620578D01*
X61820000Y20800000D02*
X61820000Y20450000D01*
X61564387Y20779991D02*
X61564387Y20570099D01*
X59264865Y18270577D02*
X58614866Y17620578D01*
X64360000Y20450000D02*
X67868513Y16941487D01*
X64360000Y20800000D02*
X64360000Y20450000D01*
X67868513Y16941487D02*
X68264247Y16941487D01*
X64787588Y13607588D02*
X64787588Y15751871D01*
X64360000Y13180000D02*
X64787588Y13607588D01*
X64636398Y13456398D02*
X64636398Y13779980D01*
X64360000Y13180000D02*
X64636398Y13456398D01*
D24*
G36*
X20418000Y2512000D02*
X11655000Y2512000D01*
X11605590Y2501994D01*
X11563965Y2473553D01*
X11536685Y2431159D01*
X11528000Y2385000D01*
X11528000Y-1298000D01*
X2892000Y-1298000D01*
X2892000Y2385000D01*
X2881994Y2434410D01*
X2853553Y2476035D01*
X2811159Y2503315D01*
X2765000Y2512000D01*
X-2315000Y2512000D01*
X-2364410Y2501994D01*
X-2406035Y2473553D01*
X-2433315Y2431159D01*
X-2442000Y2385000D01*
X-2442000Y-1298000D01*
X-11162667Y-1298000D01*
X-13618000Y543500D01*
X-13618000Y11783000D01*
X-10062000Y11783000D01*
X-10062000Y6195000D01*
X-10051994Y6145590D01*
X-10023553Y6103965D01*
X-9981159Y6076685D01*
X-9935000Y6068000D01*
X-8893600Y6068000D01*
X-8893600Y6067998D01*
X-8728818Y6067998D01*
X-8849958Y5835974D01*
X-8677688Y5420053D01*
X-8283490Y4988179D01*
X-7754027Y4740032D01*
X-7522000Y4860531D01*
X-7522000Y6068000D01*
X-7268000Y6068000D01*
X-7268000Y4860531D01*
X-7035973Y4740032D01*
X-6506510Y4988179D01*
X-6125000Y5406152D01*
X-5743490Y4988179D01*
X-5214027Y4740032D01*
X-4982000Y4860531D01*
X-4982000Y6068000D01*
X-4728000Y6068000D01*
X-4728000Y4860531D01*
X-4495973Y4740032D01*
X-3966510Y4988179D01*
X-3585000Y5406152D01*
X-3203490Y4988179D01*
X-2674027Y4740032D01*
X-2442000Y4860531D01*
X-2442000Y6068000D01*
X-2188000Y6068000D01*
X-2188000Y4860531D01*
X-1955973Y4740032D01*
X-1426510Y4988179D01*
X-1045000Y5406152D01*
X-663490Y4988179D01*
X-134027Y4740032D01*
X98000Y4860531D01*
X98000Y6068000D01*
X352000Y6068000D01*
X352000Y4860531D01*
X584027Y4740032D01*
X1113490Y4988179D01*
X1507688Y5420053D01*
X1679958Y5835974D01*
X1558818Y6067998D01*
X1723600Y6067998D01*
X1723600Y6068000D01*
X4441400Y6068000D01*
X4441400Y6067998D01*
X4606182Y6067998D01*
X4485042Y5835974D01*
X4657312Y5420053D01*
X5051510Y4988179D01*
X5580973Y4740032D01*
X5813000Y4860531D01*
X5813000Y6068000D01*
X6067000Y6068000D01*
X6067000Y4860531D01*
X6299027Y4740032D01*
X6828490Y4988179D01*
X7210000Y5406152D01*
X7591510Y4988179D01*
X8120973Y4740032D01*
X8353000Y4860531D01*
X8353000Y6068000D01*
X8607000Y6068000D01*
X8607000Y4860531D01*
X8839027Y4740032D01*
X9368490Y4988179D01*
X9750000Y5406152D01*
X10131510Y4988179D01*
X10660973Y4740032D01*
X10893000Y4860531D01*
X10893000Y6068000D01*
X11147000Y6068000D01*
X11147000Y4860531D01*
X11379027Y4740032D01*
X11908490Y4988179D01*
X12290000Y5406152D01*
X12671510Y4988179D01*
X13200973Y4740032D01*
X13433000Y4860531D01*
X13433000Y6068000D01*
X13687000Y6068000D01*
X13687000Y4860531D01*
X13919027Y4740032D01*
X14448490Y4988179D01*
X14842688Y5420053D01*
X15014958Y5835974D01*
X14893818Y6067998D01*
X15058600Y6067998D01*
X15058600Y6068000D01*
X16100000Y6068000D01*
X16149410Y6078006D01*
X16191035Y6106447D01*
X16218315Y6148841D01*
X16227000Y6195000D01*
X16227000Y19403000D01*
X20418000Y19403000D01*
X20418000Y2512000D01*
X20418000Y2512000D01*
G37*
X20418000Y2512000D02*
X11655000Y2512000D01*
X11605590Y2501994D01*
X11563965Y2473553D01*
X11536685Y2431159D01*
X11528000Y2385000D01*
X11528000Y-1298000D01*
X2892000Y-1298000D01*
X2892000Y2385000D01*
X2881994Y2434410D01*
X2853553Y2476035D01*
X2811159Y2503315D01*
X2765000Y2512000D01*
X-2315000Y2512000D01*
X-2364410Y2501994D01*
X-2406035Y2473553D01*
X-2433315Y2431159D01*
X-2442000Y2385000D01*
X-2442000Y-1298000D01*
X-11162667Y-1298000D01*
X-13618000Y543500D01*
X-13618000Y11783000D01*
X-10062000Y11783000D01*
X-10062000Y6195000D01*
X-10051994Y6145590D01*
X-10023553Y6103965D01*
X-9981159Y6076685D01*
X-9935000Y6068000D01*
X-8893600Y6068000D01*
X-8893600Y6067998D01*
X-8728818Y6067998D01*
X-8849958Y5835974D01*
X-8677688Y5420053D01*
X-8283490Y4988179D01*
X-7754027Y4740032D01*
X-7522000Y4860531D01*
X-7522000Y6068000D01*
X-7268000Y6068000D01*
X-7268000Y4860531D01*
X-7035973Y4740032D01*
X-6506510Y4988179D01*
X-6125000Y5406152D01*
X-5743490Y4988179D01*
X-5214027Y4740032D01*
X-4982000Y4860531D01*
X-4982000Y6068000D01*
X-4728000Y6068000D01*
X-4728000Y4860531D01*
X-4495973Y4740032D01*
X-3966510Y4988179D01*
X-3585000Y5406152D01*
X-3203490Y4988179D01*
X-2674027Y4740032D01*
X-2442000Y4860531D01*
X-2442000Y6068000D01*
X-2188000Y6068000D01*
X-2188000Y4860531D01*
X-1955973Y4740032D01*
X-1426510Y4988179D01*
X-1045000Y5406152D01*
X-663490Y4988179D01*
X-134027Y4740032D01*
X98000Y4860531D01*
X98000Y6068000D01*
X352000Y6068000D01*
X352000Y4860531D01*
X584027Y4740032D01*
X1113490Y4988179D01*
X1507688Y5420053D01*
X1679958Y5835974D01*
X1558818Y6067998D01*
X1723600Y6067998D01*
X1723600Y6068000D01*
X4441400Y6068000D01*
X4441400Y6067998D01*
X4606182Y6067998D01*
X4485042Y5835974D01*
X4657312Y5420053D01*
X5051510Y4988179D01*
X5580973Y4740032D01*
X5813000Y4860531D01*
X5813000Y6068000D01*
X6067000Y6068000D01*
X6067000Y4860531D01*
X6299027Y4740032D01*
X6828490Y4988179D01*
X7210000Y5406152D01*
X7591510Y4988179D01*
X8120973Y4740032D01*
X8353000Y4860531D01*
X8353000Y6068000D01*
X8607000Y6068000D01*
X8607000Y4860531D01*
X8839027Y4740032D01*
X9368490Y4988179D01*
X9750000Y5406152D01*
X10131510Y4988179D01*
X10660973Y4740032D01*
X10893000Y4860531D01*
X10893000Y6068000D01*
X11147000Y6068000D01*
X11147000Y4860531D01*
X11379027Y4740032D01*
X11908490Y4988179D01*
X12290000Y5406152D01*
X12671510Y4988179D01*
X13200973Y4740032D01*
X13433000Y4860531D01*
X13433000Y6068000D01*
X13687000Y6068000D01*
X13687000Y4860531D01*
X13919027Y4740032D01*
X14448490Y4988179D01*
X14842688Y5420053D01*
X15014958Y5835974D01*
X14893818Y6067998D01*
X15058600Y6067998D01*
X15058600Y6068000D01*
X16100000Y6068000D01*
X16149410Y6078006D01*
X16191035Y6106447D01*
X16218315Y6148841D01*
X16227000Y6195000D01*
X16227000Y19403000D01*
X20418000Y19403000D01*
X20418000Y2512000D01*
G36*
X-7693000Y26377000D02*
X-5407000Y26377000D01*
X-5407000Y26388000D01*
X-5153000Y26388000D01*
X-5153000Y26377000D01*
X-2867000Y26377000D01*
X-2867000Y26388000D01*
X-2613000Y26388000D01*
X-2613000Y26377000D01*
X-327000Y26377000D01*
X-327000Y26388000D01*
X-73000Y26388000D01*
X-73000Y26377000D01*
X1133817Y26377000D01*
X1139560Y26388000D01*
X4175440Y26388000D01*
X4181183Y26377000D01*
X5388000Y26377000D01*
X5388000Y26388000D01*
X5642000Y26388000D01*
X5642000Y26377000D01*
X7928000Y26377000D01*
X7928000Y26388000D01*
X8182000Y26388000D01*
X8182000Y26377000D01*
X10468000Y26377000D01*
X10468000Y26388000D01*
X10722000Y26388000D01*
X10722000Y26377000D01*
X13008000Y26377000D01*
X13008000Y26388000D01*
X13262000Y26388000D01*
X13262000Y26377000D01*
X13282000Y26377000D01*
X13282000Y26123000D01*
X13262000Y26123000D01*
X13262000Y24915531D01*
X13433000Y24826725D01*
X13433000Y23467000D01*
X-7903000Y23467000D01*
X-7903000Y26123000D01*
X-7693000Y26123000D01*
X-7693000Y24915531D01*
X-7460973Y24795032D01*
X-6931510Y25043179D01*
X-6550000Y25461152D01*
X-6168490Y25043179D01*
X-5639027Y24795032D01*
X-5407000Y24915531D01*
X-5407000Y26123000D01*
X-5153000Y26123000D01*
X-5153000Y24915531D01*
X-4920973Y24795032D01*
X-4391510Y25043179D01*
X-4010000Y25461152D01*
X-3628490Y25043179D01*
X-3099027Y24795032D01*
X-2867000Y24915531D01*
X-2867000Y26123000D01*
X-2613000Y26123000D01*
X-2613000Y24915531D01*
X-2380973Y24795032D01*
X-1851510Y25043179D01*
X-1470000Y25461152D01*
X-1088490Y25043179D01*
X-559027Y24795032D01*
X-327000Y24915531D01*
X-327000Y26123000D01*
X-73000Y26123000D01*
X-73000Y24915531D01*
X159027Y24795032D01*
X688490Y25043179D01*
X1082688Y25475053D01*
X1254958Y25890974D01*
X4060042Y25890974D01*
X4232312Y25475053D01*
X4626510Y25043179D01*
X5155973Y24795032D01*
X5388000Y24915531D01*
X5388000Y26123000D01*
X5642000Y26123000D01*
X5642000Y24915531D01*
X5874027Y24795032D01*
X6403490Y25043179D01*
X6785000Y25461152D01*
X7166510Y25043179D01*
X7695973Y24795032D01*
X7928000Y24915531D01*
X7928000Y26123000D01*
X8182000Y26123000D01*
X8182000Y24915531D01*
X8414027Y24795032D01*
X8943490Y25043179D01*
X9325000Y25461152D01*
X9706510Y25043179D01*
X10235973Y24795032D01*
X10468000Y24915531D01*
X10468000Y26123000D01*
X10722000Y26123000D01*
X10722000Y24915531D01*
X10954027Y24795032D01*
X11483490Y25043179D01*
X11865000Y25461152D01*
X12246510Y25043179D01*
X12775973Y24795032D01*
X13008000Y24915531D01*
X13008000Y26123000D01*
X10722000Y26123000D01*
X10468000Y26123000D01*
X8182000Y26123000D01*
X7928000Y26123000D01*
X5642000Y26123000D01*
X5388000Y26123000D01*
X4181183Y26123000D01*
X4060042Y25890974D01*
X1254958Y25890974D01*
X1133817Y26123000D01*
X-73000Y26123000D01*
X-327000Y26123000D01*
X-2613000Y26123000D01*
X-2867000Y26123000D01*
X-5153000Y26123000D01*
X-5407000Y26123000D01*
X-7693000Y26123000D01*
X-7903000Y26123000D01*
X-7903000Y26388000D01*
X-7693000Y26388000D01*
X-7693000Y26377000D01*
X-7693000Y26377000D01*
G37*
X-7693000Y26377000D02*
X-5407000Y26377000D01*
X-5407000Y26388000D01*
X-5153000Y26388000D01*
X-5153000Y26377000D01*
X-2867000Y26377000D01*
X-2867000Y26388000D01*
X-2613000Y26388000D01*
X-2613000Y26377000D01*
X-327000Y26377000D01*
X-327000Y26388000D01*
X-73000Y26388000D01*
X-73000Y26377000D01*
X1133817Y26377000D01*
X1139560Y26388000D01*
X4175440Y26388000D01*
X4181183Y26377000D01*
X5388000Y26377000D01*
X5388000Y26388000D01*
X5642000Y26388000D01*
X5642000Y26377000D01*
X7928000Y26377000D01*
X7928000Y26388000D01*
X8182000Y26388000D01*
X8182000Y26377000D01*
X10468000Y26377000D01*
X10468000Y26388000D01*
X10722000Y26388000D01*
X10722000Y26377000D01*
X13008000Y26377000D01*
X13008000Y26388000D01*
X13262000Y26388000D01*
X13262000Y26377000D01*
X13282000Y26377000D01*
X13282000Y26123000D01*
X13262000Y26123000D01*
X13262000Y24915531D01*
X13433000Y24826725D01*
X13433000Y23467000D01*
X-7903000Y23467000D01*
X-7903000Y26123000D01*
X-7693000Y26123000D01*
X-7693000Y24915531D01*
X-7460973Y24795032D01*
X-6931510Y25043179D01*
X-6550000Y25461152D01*
X-6168490Y25043179D01*
X-5639027Y24795032D01*
X-5407000Y24915531D01*
X-5407000Y26123000D01*
X-5153000Y26123000D01*
X-5153000Y24915531D01*
X-4920973Y24795032D01*
X-4391510Y25043179D01*
X-4010000Y25461152D01*
X-3628490Y25043179D01*
X-3099027Y24795032D01*
X-2867000Y24915531D01*
X-2867000Y26123000D01*
X-2613000Y26123000D01*
X-2613000Y24915531D01*
X-2380973Y24795032D01*
X-1851510Y25043179D01*
X-1470000Y25461152D01*
X-1088490Y25043179D01*
X-559027Y24795032D01*
X-327000Y24915531D01*
X-327000Y26123000D01*
X-73000Y26123000D01*
X-73000Y24915531D01*
X159027Y24795032D01*
X688490Y25043179D01*
X1082688Y25475053D01*
X1254958Y25890974D01*
X4060042Y25890974D01*
X4232312Y25475053D01*
X4626510Y25043179D01*
X5155973Y24795032D01*
X5388000Y24915531D01*
X5388000Y26123000D01*
X5642000Y26123000D01*
X5642000Y24915531D01*
X5874027Y24795032D01*
X6403490Y25043179D01*
X6785000Y25461152D01*
X7166510Y25043179D01*
X7695973Y24795032D01*
X7928000Y24915531D01*
X7928000Y26123000D01*
X8182000Y26123000D01*
X8182000Y24915531D01*
X8414027Y24795032D01*
X8943490Y25043179D01*
X9325000Y25461152D01*
X9706510Y25043179D01*
X10235973Y24795032D01*
X10468000Y24915531D01*
X10468000Y26123000D01*
X10722000Y26123000D01*
X10722000Y24915531D01*
X10954027Y24795032D01*
X11483490Y25043179D01*
X11865000Y25461152D01*
X12246510Y25043179D01*
X12775973Y24795032D01*
X13008000Y24915531D01*
X13008000Y26123000D01*
X10722000Y26123000D01*
X10468000Y26123000D01*
X8182000Y26123000D01*
X7928000Y26123000D01*
X5642000Y26123000D01*
X5388000Y26123000D01*
X4181183Y26123000D01*
X4060042Y25890974D01*
X1254958Y25890974D01*
X1133817Y26123000D01*
X-73000Y26123000D01*
X-327000Y26123000D01*
X-2613000Y26123000D01*
X-2867000Y26123000D01*
X-5153000Y26123000D01*
X-5407000Y26123000D01*
X-7693000Y26123000D01*
X-7903000Y26123000D01*
X-7903000Y26388000D01*
X-7693000Y26388000D01*
X-7693000Y26377000D01*
M02*
