M48
;DRILL file {KiCad 4.0.1-stable} date 2/3/2016 9:57:23 PM
;FORMAT={-:-/ absolute / metric / decimal}
FMAT,2
METRIC,TZ
T1C0.800
T2C1.016
T3C3.175
%
G90
G05
M71
T1
X7.62Y24.13
X7.62Y21.59
X7.62Y19.05
X7.62Y16.51
X7.62Y13.97
X7.62Y11.43
X7.62Y8.89
X7.62Y6.35
X15.24Y24.13
X15.24Y21.59
X15.24Y19.05
X15.24Y16.51
X15.24Y13.97
X15.24Y11.43
X15.24Y8.89
X15.24Y6.35
X22.86Y24.13
X22.86Y21.59
X22.86Y19.05
X22.86Y16.51
X22.86Y13.97
X22.86Y11.43
X22.86Y8.89
X22.86Y6.35
X30.48Y24.13
X30.48Y21.59
X30.48Y19.05
X30.48Y16.51
X30.48Y13.97
X30.48Y11.43
X30.48Y8.89
X30.48Y6.35
X38.1Y24.13
X38.1Y21.59
X38.1Y19.05
X38.1Y16.51
X38.1Y13.97
X38.1Y11.43
X38.1Y8.89
X38.1Y6.35
X45.72Y24.13
X45.72Y21.59
X45.72Y19.05
X45.72Y16.51
X45.72Y13.97
X45.72Y11.43
X45.72Y8.89
X45.72Y6.35
X53.34Y24.13
X53.34Y21.59
X53.34Y19.05
X53.34Y16.51
X53.34Y13.97
X53.34Y11.43
X53.34Y8.89
X53.34Y6.35
X60.96Y24.13
X60.96Y21.59
X60.96Y19.05
X60.96Y16.51
X60.96Y13.97
X60.96Y11.43
X60.96Y8.89
X60.96Y6.35
T2
X7.62Y36.83
X7.62Y34.29
X7.62Y31.75
X7.62Y29.21
X7.62Y0.
X10.16Y0.
X11.43Y36.83
X11.43Y34.29
X11.43Y31.75
X11.43Y29.21
X12.7Y0.
X15.24Y36.83
X15.24Y34.29
X15.24Y31.75
X15.24Y29.21
X15.24Y0.
X18.542Y30.988
X18.542Y28.448
X19.05Y24.13
X19.05Y21.59
X19.05Y19.05
X19.05Y16.51
X19.05Y13.97
X19.05Y11.43
X19.05Y7.62
X19.05Y5.08
X22.86Y36.83
X22.86Y34.29
X22.86Y31.75
X22.86Y29.21
X22.86Y0.
X23.056Y42.726
X25.4Y0.
X25.596Y42.726
X26.67Y36.83
X26.67Y34.29
X26.67Y31.75
X26.67Y29.21
X27.94Y0.
X28.136Y42.726
X30.48Y36.83
X30.48Y34.29
X30.48Y31.75
X30.48Y29.21
X30.48Y0.
X30.676Y42.726
X32.2Y-5.534
X33.216Y42.726
X34.036Y30.861
X34.036Y28.321
X34.29Y24.13
X34.29Y21.59
X34.29Y19.05
X34.29Y16.51
X34.29Y13.97
X34.29Y11.43
X34.29Y7.62
X34.29Y5.08
X34.74Y-5.534
X35.756Y42.726
X37.28Y-5.534
X38.1Y36.83
X38.1Y34.29
X38.1Y31.75
X38.1Y29.21
X38.1Y0.
X38.296Y42.726
X39.82Y-5.534
X40.64Y0.
X40.836Y42.726
X41.91Y36.83
X41.91Y34.29
X41.91Y31.75
X41.91Y29.21
X42.36Y-5.534
X43.18Y0.
X43.376Y42.726
X44.9Y-5.534
X45.72Y36.83
X45.72Y34.29
X45.72Y31.75
X45.72Y29.21
X45.72Y0.
X45.916Y42.726
X47.44Y-5.534
X48.895Y31.75
X48.895Y29.21
X49.53Y24.13
X49.53Y21.59
X49.53Y19.05
X49.53Y16.51
X49.53Y13.97
X49.53Y11.43
X49.53Y7.62
X49.53Y5.08
X49.98Y42.726
X49.98Y-5.534
X52.52Y42.726
X53.34Y36.83
X53.34Y34.29
X53.34Y31.75
X53.34Y29.21
X53.34Y0.
X55.06Y42.726
X55.06Y-5.534
X55.88Y0.
X57.15Y36.83
X57.15Y34.29
X57.15Y31.75
X57.15Y29.21
X57.6Y42.726
X57.6Y-5.534
X58.42Y0.
X60.14Y42.726
X60.14Y-5.534
X60.96Y36.83
X60.96Y34.29
X60.96Y31.75
X60.96Y29.21
X60.96Y0.
X62.68Y42.726
X62.68Y-5.534
X64.135Y31.75
X64.135Y29.21
X64.77Y24.13
X64.77Y21.59
X64.77Y19.05
X64.77Y16.51
X64.77Y13.97
X64.77Y11.43
X64.77Y7.62
X64.77Y5.08
X65.22Y42.726
X65.22Y-5.534
X67.76Y42.726
X67.76Y-5.534
T3
X0.Y38.1
X0.Y0.
T0
M30
