G04 #@! TF.FileFunction,Copper,L1,Top,Signal*
%FSLAX46Y46*%
G04 Gerber Fmt 4.6, Leading zero omitted, Abs format (unit mm)*
G04 Created by KiCad (PCBNEW 4.0.1-stable) date 2/3/2016 9:56:59 PM*
%MOMM*%
G01*
G04 APERTURE LIST*
%ADD10C,0.100000*%
%ADD11O,1.524000X2.540000*%
%ADD12R,2.032000X1.727200*%
%ADD13O,2.032000X1.727200*%
%ADD14R,1.727200X2.032000*%
%ADD15O,1.727200X2.032000*%
%ADD16R,2.032000X2.032000*%
%ADD17O,2.032000X2.032000*%
%ADD18O,2.300000X1.600000*%
%ADD19C,3.500000*%
%ADD20C,0.600000*%
G04 APERTURE END LIST*
D10*
D11*
X67760000Y-5534000D03*
X65220000Y-5534000D03*
X62680000Y-5534000D03*
X55060000Y-5534000D03*
X57600000Y-5534000D03*
X60140000Y-5534000D03*
X49980000Y-5534000D03*
X47440000Y-5534000D03*
X44900000Y-5534000D03*
X39820000Y-5534000D03*
X37280000Y-5534000D03*
X67760000Y42726000D03*
X65220000Y42726000D03*
X62680000Y42726000D03*
X60140000Y42726000D03*
X57600000Y42726000D03*
X55060000Y42726000D03*
X52520000Y42726000D03*
X49980000Y42726000D03*
X45916000Y42726000D03*
X43376000Y42726000D03*
X40836000Y42726000D03*
X38296000Y42726000D03*
X35756000Y42726000D03*
X33216000Y42726000D03*
X30676000Y42726000D03*
X28136000Y42726000D03*
X42360000Y-5534000D03*
X25596000Y42726000D03*
X23056000Y42726000D03*
X34740000Y-5534000D03*
X32200000Y-5534000D03*
D12*
X15240000Y29210000D03*
D13*
X15240000Y31750000D03*
X15240000Y34290000D03*
X15240000Y36830000D03*
D12*
X30480000Y29210000D03*
D13*
X30480000Y31750000D03*
X30480000Y34290000D03*
X30480000Y36830000D03*
D14*
X7620000Y0D03*
D15*
X10160000Y0D03*
X12700000Y0D03*
X15240000Y0D03*
D16*
X19050000Y5080000D03*
D17*
X19050000Y7620000D03*
D12*
X34290000Y24130000D03*
D13*
X34290000Y21590000D03*
X34290000Y19050000D03*
X34290000Y16510000D03*
X34290000Y13970000D03*
X34290000Y11430000D03*
D18*
X7620000Y24130000D03*
X7620000Y21590000D03*
X7620000Y19050000D03*
X7620000Y16510000D03*
X7620000Y13970000D03*
X7620000Y11430000D03*
X7620000Y8890000D03*
X7620000Y6350000D03*
X15240000Y6350000D03*
X15240000Y8890000D03*
X15240000Y11430000D03*
X15240000Y13970000D03*
X15240000Y16510000D03*
X15240000Y19050000D03*
X15240000Y21590000D03*
X15240000Y24130000D03*
X22860000Y24130000D03*
X22860000Y21590000D03*
X22860000Y19050000D03*
X22860000Y16510000D03*
X22860000Y13970000D03*
X22860000Y11430000D03*
X22860000Y8890000D03*
X22860000Y6350000D03*
X30480000Y6350000D03*
X30480000Y8890000D03*
X30480000Y11430000D03*
X30480000Y13970000D03*
X30480000Y16510000D03*
X30480000Y19050000D03*
X30480000Y21590000D03*
X30480000Y24130000D03*
X38100000Y24130000D03*
X38100000Y21590000D03*
X38100000Y19050000D03*
X38100000Y16510000D03*
X38100000Y13970000D03*
X38100000Y11430000D03*
X38100000Y8890000D03*
X38100000Y6350000D03*
X45720000Y6350000D03*
X45720000Y8890000D03*
X45720000Y11430000D03*
X45720000Y13970000D03*
X45720000Y16510000D03*
X45720000Y19050000D03*
X45720000Y21590000D03*
X45720000Y24130000D03*
X53340000Y24130000D03*
X53340000Y21590000D03*
X53340000Y19050000D03*
X53340000Y16510000D03*
X53340000Y13970000D03*
X53340000Y11430000D03*
X53340000Y8890000D03*
X53340000Y6350000D03*
X60960000Y6350000D03*
X60960000Y8890000D03*
X60960000Y11430000D03*
X60960000Y13970000D03*
X60960000Y16510000D03*
X60960000Y19050000D03*
X60960000Y21590000D03*
X60960000Y24130000D03*
D12*
X11430000Y29210000D03*
D13*
X11430000Y31750000D03*
X11430000Y34290000D03*
X11430000Y36830000D03*
D12*
X7620000Y29210000D03*
D13*
X7620000Y31750000D03*
X7620000Y34290000D03*
X7620000Y36830000D03*
D12*
X26670000Y29210000D03*
D13*
X26670000Y31750000D03*
X26670000Y34290000D03*
X26670000Y36830000D03*
D12*
X22860000Y29210000D03*
D13*
X22860000Y31750000D03*
X22860000Y34290000D03*
X22860000Y36830000D03*
D14*
X22860000Y0D03*
D15*
X25400000Y0D03*
X27940000Y0D03*
X30480000Y0D03*
D16*
X34290000Y5080000D03*
D17*
X34290000Y7620000D03*
D12*
X19050000Y24130000D03*
D13*
X19050000Y21590000D03*
X19050000Y19050000D03*
X19050000Y16510000D03*
X19050000Y13970000D03*
X19050000Y11430000D03*
D12*
X45720000Y29210000D03*
D13*
X45720000Y31750000D03*
X45720000Y34290000D03*
X45720000Y36830000D03*
D12*
X41910000Y29210000D03*
D13*
X41910000Y31750000D03*
X41910000Y34290000D03*
X41910000Y36830000D03*
D12*
X38100000Y29210000D03*
D13*
X38100000Y31750000D03*
X38100000Y34290000D03*
X38100000Y36830000D03*
D12*
X60960000Y29210000D03*
D13*
X60960000Y31750000D03*
X60960000Y34290000D03*
X60960000Y36830000D03*
D12*
X57150000Y29210000D03*
D13*
X57150000Y31750000D03*
X57150000Y34290000D03*
X57150000Y36830000D03*
D12*
X53340000Y29210000D03*
D13*
X53340000Y31750000D03*
X53340000Y34290000D03*
X53340000Y36830000D03*
D14*
X38100000Y0D03*
D15*
X40640000Y0D03*
X43180000Y0D03*
X45720000Y0D03*
D16*
X49530000Y5080000D03*
D17*
X49530000Y7620000D03*
D14*
X53340000Y0D03*
D15*
X55880000Y0D03*
X58420000Y0D03*
X60960000Y0D03*
D16*
X64770000Y5080000D03*
D17*
X64770000Y7620000D03*
D12*
X49530000Y24130000D03*
D13*
X49530000Y21590000D03*
X49530000Y19050000D03*
X49530000Y16510000D03*
X49530000Y13970000D03*
X49530000Y11430000D03*
D12*
X64770000Y24130000D03*
D13*
X64770000Y21590000D03*
X64770000Y19050000D03*
X64770000Y16510000D03*
X64770000Y13970000D03*
X64770000Y11430000D03*
D16*
X18542000Y28448000D03*
D17*
X18542000Y30988000D03*
D16*
X34036000Y28321000D03*
D17*
X34036000Y30861000D03*
D16*
X48895000Y29210000D03*
D17*
X48895000Y31750000D03*
D16*
X64135000Y29210000D03*
D17*
X64135000Y31750000D03*
D19*
X0Y38100000D03*
X0Y0D03*
D20*
X15240000Y24130000D02*
X19050000Y24130000D01*
X48895000Y29210000D02*
X45720000Y29210000D01*
X32096000Y29210000D02*
X30480000Y29210000D01*
X32420000Y28886000D02*
X32096000Y29210000D01*
X32420000Y28321000D02*
X32420000Y28886000D01*
X34036000Y28321000D02*
X32420000Y28321000D01*
X20666000Y24130000D02*
X19050000Y24130000D01*
X22019000Y25482700D02*
X20666000Y24130000D01*
X25818000Y25482700D02*
X22019000Y25482700D01*
X28826000Y22476000D02*
X25818000Y25482700D01*
X28826000Y13084000D02*
X28826000Y22476000D01*
X30480000Y11430000D02*
X28826000Y13084000D01*
X59270000Y22440000D02*
X60960000Y24130000D01*
X59270000Y13120000D02*
X59270000Y22440000D01*
X60960000Y11430000D02*
X59270000Y13120000D01*
X64135000Y28402000D02*
X63760000Y28402000D01*
X64135000Y29210000D02*
X64135000Y28402000D01*
X62576000Y29210000D02*
X60960000Y29210000D01*
X63384000Y28402000D02*
X62576000Y29210000D01*
X63760000Y28402000D02*
X63384000Y28402000D01*
X63760000Y28402000D02*
X63760000Y24130000D01*
X44051000Y13099000D02*
X45720000Y11430000D01*
X44051000Y24048900D02*
X44051000Y13099000D01*
X43970000Y24130000D02*
X44051000Y24048900D01*
X60960000Y38293600D02*
X60960000Y36830000D01*
X45720000Y38293600D02*
X60960000Y38293600D01*
X45720000Y36830000D02*
X45720000Y38293600D01*
X28826000Y22476000D02*
X30480000Y24130000D01*
X49530000Y24130000D02*
X45720000Y24130000D01*
X45720000Y24130000D02*
X43970000Y24130000D01*
X64770000Y24130000D02*
X63760000Y24130000D01*
X63760000Y24130000D02*
X60960000Y24130000D01*
X30480000Y24130000D02*
X34290000Y24130000D01*
X42656000Y25444200D02*
X43970000Y24130000D01*
X37220000Y25444200D02*
X42656000Y25444200D01*
X35906000Y24130000D02*
X37220000Y25444200D01*
X34290000Y24130000D02*
X35906000Y24130000D01*
X35906000Y11084000D02*
X38100000Y8890000D01*
X35906000Y11430000D02*
X35906000Y11084000D01*
X34290000Y11430000D02*
X35906000Y11430000D01*
X20666000Y11084000D02*
X22860000Y8890000D01*
X20666000Y11430000D02*
X20666000Y11084000D01*
X19050000Y11430000D02*
X20666000Y11430000D01*
X48895000Y31750000D02*
X53340000Y31750000D01*
X36484000Y31750000D02*
X38100000Y31750000D01*
X35652000Y30918000D02*
X36484000Y31750000D01*
X35652000Y30861000D02*
X35652000Y30918000D01*
X34036000Y30861000D02*
X35652000Y30861000D01*
X38100000Y6350000D02*
X38100000Y4950000D01*
X20482000Y30988000D02*
X18542000Y30988000D01*
X21244000Y31750000D02*
X20482000Y30988000D01*
X22860000Y31750000D02*
X21244000Y31750000D01*
X29456000Y1516000D02*
X27940000Y0D01*
X34666000Y1516000D02*
X29456000Y1516000D01*
X38100000Y4950000D02*
X34666000Y1516000D01*
X27940000Y0D02*
X25400000Y0D01*
X55880000Y0D02*
X55880000Y-808000D01*
X40640000Y2410000D02*
X38100000Y4950000D01*
X40640000Y0D02*
X40640000Y2410000D01*
X56956000Y0D02*
X58420000Y0D01*
X56148000Y-808000D02*
X56956000Y0D01*
X55880000Y-808000D02*
X56148000Y-808000D01*
X44900000Y-5066000D02*
X47440000Y-5066000D01*
X51590000Y8890000D02*
X53340000Y8890000D01*
X50514000Y9966000D02*
X51590000Y8890000D01*
X49530000Y9966000D02*
X50514000Y9966000D01*
X49530000Y11430000D02*
X49530000Y9966000D01*
X43180000Y0D02*
X40640000Y0D01*
X22860000Y34290000D02*
X22860000Y36830000D01*
X38100000Y38293600D02*
X38100000Y36830000D01*
X24324000Y38293600D02*
X38100000Y38293600D01*
X22860000Y36830000D02*
X24324000Y38293600D01*
X44900000Y-5534000D02*
X44900000Y-5066000D01*
X44900000Y-1720000D02*
X43180000Y0D01*
X44900000Y-5066000D02*
X44900000Y-1720000D01*
X47440000Y-5534000D02*
X47440000Y-5066000D01*
X53024000Y-3664000D02*
X55880000Y-808000D01*
X47440000Y-3664000D02*
X53024000Y-3664000D01*
X47440000Y-5066000D02*
X47440000Y-3664000D01*
X62919000Y12011000D02*
X60960000Y13970000D01*
X62919000Y11121000D02*
X62919000Y12011000D01*
X64014000Y10026000D02*
X62919000Y11121000D01*
X65531000Y10026000D02*
X64014000Y10026000D01*
X66301000Y10796000D02*
X65531000Y10026000D01*
X66301000Y34096800D02*
X66301000Y10796000D01*
X59542000Y40856000D02*
X66301000Y34096800D01*
X57600000Y40856000D02*
X59542000Y40856000D01*
X57600000Y42726000D02*
X57600000Y40856000D01*
X24736600Y40856000D02*
X49980000Y40856000D01*
X16756400Y32875800D02*
X24736600Y40856000D01*
X16756400Y28139200D02*
X16756400Y32875800D01*
X13565200Y24948000D02*
X16756400Y28139200D01*
X13565200Y15644800D02*
X13565200Y24948000D01*
X15240000Y13970000D02*
X13565200Y15644800D01*
X49980000Y42726000D02*
X49980000Y40856000D01*
X15240000Y4950000D02*
X15240000Y6350000D01*
X17304000Y4950000D02*
X15240000Y4950000D01*
X17434000Y5080000D02*
X17304000Y4950000D01*
X19050000Y5080000D02*
X17434000Y5080000D01*
X5920000Y19890000D02*
X7620000Y21590000D01*
X5920000Y5795000D02*
X5920000Y19890000D01*
X8175900Y3540000D02*
X5920000Y5795000D01*
X20264000Y3540000D02*
X8175900Y3540000D01*
X20666000Y3941000D02*
X20264000Y3540000D01*
X20666000Y7620000D02*
X20666000Y3941000D01*
X19050000Y7620000D02*
X20666000Y7620000D01*
X30480000Y4950000D02*
X30480000Y6350000D01*
X32544000Y4950000D02*
X30480000Y4950000D01*
X32674000Y5080000D02*
X32544000Y4950000D01*
X34290000Y5080000D02*
X32674000Y5080000D01*
X15240000Y21590000D02*
X19050000Y21590000D01*
X30480000Y21590000D02*
X34290000Y21590000D01*
X32230000Y18570000D02*
X34290000Y16510000D01*
X32230000Y19050000D02*
X32230000Y18570000D01*
X30480000Y19050000D02*
X32230000Y19050000D01*
X12703300Y19053000D02*
X7620000Y13970000D01*
X12703300Y26349900D02*
X12703300Y19053000D01*
X12949400Y26596000D02*
X12703300Y26349900D01*
X12949400Y32770600D02*
X12949400Y26596000D01*
X11430000Y34290000D02*
X12949400Y32770600D01*
X9525000Y34925000D02*
X11430000Y36830000D01*
X9525000Y18415000D02*
X9525000Y34925000D01*
X7620000Y16510000D02*
X9525000Y18415000D01*
X35906000Y7620000D02*
X34290000Y7620000D01*
X35906000Y3934000D02*
X35906000Y7620000D01*
X35530000Y3558000D02*
X35906000Y3934000D01*
X30734000Y3558000D02*
X35530000Y3558000D01*
X26338000Y7953000D02*
X30734000Y3558000D01*
X26338000Y18112000D02*
X26338000Y7953000D01*
X22860000Y21590000D02*
X26338000Y18112000D01*
X16990000Y18570000D02*
X19050000Y16510000D01*
X16990000Y19050000D02*
X16990000Y18570000D01*
X15240000Y19050000D02*
X16990000Y19050000D01*
X57150000Y12700000D02*
X60960000Y8890000D01*
X57150000Y29210000D02*
X57150000Y12700000D01*
X51685000Y13085000D02*
X53340000Y11430000D01*
X51685000Y24720800D02*
X51685000Y13085000D01*
X55534000Y28569800D02*
X51685000Y24720800D01*
X55534000Y31750000D02*
X55534000Y28569800D01*
X57150000Y31750000D02*
X55534000Y31750000D01*
X43232000Y16458000D02*
X38100000Y21590000D01*
X43232000Y6560000D02*
X43232000Y16458000D01*
X44788000Y5004000D02*
X43232000Y6560000D01*
X46626000Y5004000D02*
X44788000Y5004000D01*
X47914000Y6293000D02*
X46626000Y5004000D01*
X47914000Y7620000D02*
X47914000Y6293000D01*
X49530000Y7620000D02*
X47914000Y7620000D01*
X60960000Y4950000D02*
X60960000Y6350000D01*
X63024000Y4950000D02*
X60960000Y4950000D01*
X63154000Y5080000D02*
X63024000Y4950000D01*
X64770000Y5080000D02*
X63154000Y5080000D01*
X56032000Y18898000D02*
X53340000Y21590000D01*
X56032000Y8722000D02*
X56032000Y18898000D01*
X61195000Y3559000D02*
X56032000Y8722000D01*
X66008000Y3559000D02*
X61195000Y3559000D01*
X66386000Y3937000D02*
X66008000Y3559000D01*
X66386000Y7620000D02*
X66386000Y3937000D01*
X64770000Y7620000D02*
X66386000Y7620000D01*
X45720000Y21590000D02*
X49530000Y21590000D01*
X47470000Y18570000D02*
X49530000Y16510000D01*
X47470000Y19050000D02*
X47470000Y18570000D01*
X45720000Y19050000D02*
X47470000Y19050000D01*
X60960000Y21590000D02*
X64770000Y21590000D01*
X62710000Y18570000D02*
X64770000Y16510000D01*
X62710000Y19050000D02*
X62710000Y18570000D01*
X60960000Y19050000D02*
X62710000Y19050000D01*
M02*
